{"glyphs":{":":{"x_min":0,"x_max":190,"ha":190,"o":"m 168 305 q 168 320 163 334 q 166 335 167 338 q 173 344 173 352 q 173 360 167 366 q 162 375 160 386 q 159 397 148 403 q 126 420 99 416 q 72 411 52 394 q 33 377 26 352 q 18 327 35 304 q 35 274 55 252 q 75 229 104 229 q 134 229 151 252 q 168 275 168 305 z m 168 49 l 168 52 q 174 56 178 62 q 183 67 183 75 q 186 87 184 102 q 181 116 174 128 q 168 140 156 148 q 145 155 130 152 q 113 155 97 152 q 81 148 68 140 q 54 131 44 118 q 34 104 30 88 q 24 72 36 64 q 35 57 35 49 q 35 19 55 -4 q 75 -26 104 -26 q 134 -26 152 -2 q 168 18 168 49 z m 160 75 q 157 67 150 64 q 142 60 134 63 l 121 67 q 119 62 118 57 q 116 52 113 48 l 113 29 q 113 18 106 13 q 100 8 92 8 q 85 8 79 13 q 73 18 73 29 l 73 58 q 65 58 61 59 q 53 59 47 65 q 41 71 41 79 q 40 89 44 100 q 49 110 56 118 q 64 127 74 132 q 84 136 95 136 l 103 136 q 109 135 115 133 q 121 131 127 129 q 146 124 158 110 q 169 95 160 75 z m 96 409 q 109 413 118 404 q 133 400 146 390 q 159 381 165 368 q 167 363 166 356 q 165 350 161 346 q 157 340 151 338 q 145 335 138 333 l 123 341 q 122 342 120 344 q 119 346 117 348 q 111 346 104 340 q 97 335 89 331 q 85 329 78 328 q 72 328 68 331 q 62 335 58 337 q 51 341 48 348 q 45 355 48 362 q 54 379 67 391 q 80 403 96 409 z"},"$":{"x_min":0,"x_max":412,"ha":412,"o":"m 349 621 q 347 622 341 624 q 335 631 328 637 q 326 649 318 656 q 309 663 298 668 q 287 672 276 674 q 264 676 256 677 q 258 691 252 704 q 245 716 233 724 q 229 733 220 737 q 203 745 190 739 q 176 733 167 720 q 158 707 154 692 q 149 676 151 666 q 124 659 98 642 q 73 625 56 602 q 38 578 34 550 q 29 521 46 492 q 47 487 50 485 q 52 412 99 369 q 144 338 190 308 q 239 273 239 219 q 239 191 211 191 q 194 191 187 204 q 192 208 195 212 q 198 217 202 222 q 203 234 201 248 q 199 263 192 274 q 186 286 176 293 q 165 300 149 297 q 140 299 134 296 q 127 294 119 290 q 116 290 112 290 q 109 291 106 290 q 95 292 86 289 q 76 286 67 281 q 51 281 40 271 q 29 261 24 247 q 18 233 20 218 q 23 203 34 192 q 40 183 53 185 q 61 144 90 113 q 131 69 193 59 l 185 0 q 185 -18 211 -18 q 237 -18 237 -9 q 237 0 229 59 q 291 70 332 114 q 372 158 372 219 q 372 225 371 232 q 383 251 382 274 q 380 297 368 317 q 365 333 356 346 q 347 358 335 368 q 323 378 309 386 q 295 394 282 400 q 270 402 258 405 q 246 408 234 407 q 230 407 224 405 q 182 436 182 492 q 182 520 211 520 q 234 520 238 495 q 239 492 239 452 l 300 452 q 303 441 315 438 l 316 438 q 321 430 330 425 q 338 420 347 419 q 356 418 364 421 q 372 424 378 433 q 388 443 391 456 q 394 469 394 482 q 393 496 390 510 q 388 523 388 535 q 388 546 381 551 q 381 571 374 590 q 366 609 349 621 z m 162 662 q 164 670 167 672 q 166 686 168 701 q 170 716 185 724 q 192 729 198 728 q 205 728 210 724 q 227 719 232 704 q 236 690 231 676 l 236 671 q 238 666 241 662 q 244 657 246 652 q 271 654 294 644 q 318 635 322 608 q 342 603 354 587 q 365 571 370 552 q 366 540 368 527 q 369 514 372 502 q 374 489 374 476 q 374 464 367 452 q 359 441 349 440 q 339 438 330 442 q 320 445 312 454 q 305 462 303 473 q 302 473 301 474 q 298 474 298 473 q 294 470 288 470 q 281 469 277 471 l 276 471 q 270 471 264 476 q 259 480 257 486 q 252 499 254 512 q 257 525 254 538 q 247 540 242 545 q 236 550 232 556 q 211 550 191 559 q 171 568 158 585 q 147 583 140 576 q 132 568 126 558 q 119 549 113 540 q 107 530 98 524 q 90 516 81 518 q 72 519 67 528 q 57 544 60 560 q 63 577 73 592 q 83 607 97 618 q 111 630 125 638 q 129 641 136 642 q 142 643 148 646 q 154 648 158 652 q 162 655 162 662 z m 262 393 q 292 387 316 366 q 340 346 354 318 q 367 291 368 260 q 370 229 354 201 q 354 186 346 172 q 339 159 322 157 q 313 155 306 161 q 299 167 298 176 q 295 191 296 206 q 296 220 297 235 q 298 250 298 264 q 297 279 292 293 q 287 289 281 289 q 276 289 271 289 q 261 291 256 297 q 252 303 250 310 q 247 318 246 326 q 246 334 245 342 q 235 345 231 354 q 227 358 226 360 q 221 364 220 371 q 219 378 222 384 q 225 389 230 392 q 236 396 245 395 q 247 395 250 394 q 253 394 255 394 q 260 394 262 393 z m 45 264 q 50 271 57 272 q 64 273 70 271 q 81 273 92 274 q 104 276 115 278 q 121 281 134 283 q 146 285 156 283 q 170 283 178 274 q 187 265 190 253 q 192 241 188 230 q 185 218 175 212 q 173 188 175 164 q 177 141 176 118 q 176 107 170 102 q 163 97 155 97 q 148 97 142 102 q 136 107 136 118 l 136 147 q 131 141 124 140 q 117 138 110 143 q 95 151 90 166 q 85 181 80 196 q 67 194 56 200 q 44 207 38 218 q 31 228 32 240 q 33 253 45 264 z m 87 196 l 96 202 q 93 200 90 199 q 88 198 86 197 z"},"?":{"x_min":0,"x_max":378,"ha":378,"o":"m 295 705 q 259 731 217 734 q 175 737 136 723 q 97 709 66 680 q 34 650 19 612 q 12 611 7 602 q -3 587 -8 568 q -13 548 -12 529 q -11 510 -2 493 q 6 476 24 466 q 35 459 46 466 q 60 473 68 488 q 75 502 80 510 l 87 508 q 96 505 102 510 l 158 510 q 163 578 186 578 q 215 578 215 550 q 215 509 164 436 q 114 364 114 308 q 114 283 136 184 l 196 184 q 204 265 204 267 q 208 292 246 336 q 296 393 312 421 q 325 443 333 467 q 341 463 350 466 q 359 470 361 482 q 368 514 369 548 q 370 582 355 612 q 351 641 337 666 q 323 691 295 705 z m 61 549 q 53 543 46 544 q 46 529 49 517 q 50 507 44 501 q 39 495 32 494 q 24 494 17 498 q 10 503 9 513 q 7 525 6 538 q 6 552 8 564 q 11 577 18 588 q 24 599 36 606 q 50 633 72 657 q 93 681 120 696 q 147 712 178 716 q 208 721 240 709 q 276 704 300 682 q 325 661 339 632 q 360 598 360 557 q 360 516 338 483 q 332 472 323 472 q 315 466 308 467 q 301 458 294 450 q 286 442 266 406 l 266 402 q 266 394 260 390 q 255 385 248 384 q 240 383 234 386 q 227 390 226 398 q 220 429 229 462 q 238 495 242 527 l 242 528 q 241 548 236 568 q 230 587 220 606 l 212 606 q 208 606 202 608 l 197 603 q 190 592 178 593 q 166 594 161 605 q 158 598 156 591 q 153 584 151 577 q 151 569 139 560 q 127 551 120 554 q 118 553 114 553 q 115 544 110 538 q 105 533 90 542 q 74 550 73 552 q 72 555 71 557 q 67 553 61 549 z m 238 49 q 238 70 229 88 q 229 103 222 118 q 216 133 204 143 q 193 153 178 156 q 162 160 146 152 q 123 140 106 118 q 89 96 89 69 q 88 61 92 55 q 97 49 105 47 q 105 18 124 -3 q 144 -26 173 -26 q 203 -26 221 -2 q 238 18 238 49 z m 102 86 q 107 100 116 112 q 126 125 140 132 q 160 145 179 140 q 198 135 212 121 q 225 107 230 86 q 234 66 225 47 q 218 33 206 34 q 195 35 189 44 q 189 44 188 44 q 188 44 188 45 q 188 42 188 38 q 188 35 190 32 q 191 22 186 16 q 180 10 172 9 q 165 8 158 12 q 151 16 150 26 q 121 57 114 60 q 107 62 103 69 q 99 76 102 86 z"},"<":{"x_min":0,"x_max":267,"ha":267,"o":"m 57 363 q 49 360 43 362 q 37 363 34 368 q 30 372 29 378 q 28 384 30 390 q 25 385 22 383 l 17 371 q 12 360 16 352 q 21 345 29 343 l 22 336 l 170 187 l 232 187 l 203 216 q 206 221 204 232 q 200 255 186 270 q 173 286 156 300 q 144 311 132 322 q 119 334 108 348 q 104 351 100 353 l 136 389 l 138 389 q 155 386 168 392 q 181 399 192 410 q 204 420 214 432 q 225 444 237 452 q 248 464 246 479 q 243 494 231 504 q 227 509 220 512 q 213 514 207 512 q 204 511 200 509 q 190 514 181 509 q 179 507 177 506 q 175 506 173 505 q 149 502 136 481 q 124 471 112 460 q 100 450 89 438 q 77 429 66 420 q 55 411 44 401 q 66 408 85 421 q 104 434 122 448 q 141 462 160 475 q 179 488 201 496 q 213 501 222 494 q 231 488 229 475 q 229 467 226 462 q 222 456 218 451 q 203 440 190 428 q 176 415 156 413 q 152 411 148 412 q 145 412 142 413 q 122 398 101 384 q 80 371 57 363 z m 97 287 q 89 294 90 302 q 91 311 96 316 q 101 321 109 322 q 117 322 125 315 q 141 299 156 282 q 170 265 183 247 q 189 239 187 231 q 185 223 179 218 q 173 214 165 214 q 157 215 151 223 q 138 240 125 256 q 112 272 97 287 z"},"'":{"x_min":0,"x_max":159,"ha":159,"o":"m 134 595 q 139 597 142 607 q 146 617 146 628 q 146 639 144 650 q 141 660 138 670 q 135 681 135 692 q 126 700 122 712 q 118 725 104 730 q 94 732 84 729 q 72 732 64 726 q 40 712 30 688 q 20 665 22 639 q 23 613 34 589 q 46 565 66 552 q 71 551 77 553 q 81 540 81 531 q 81 516 75 503 q 126 522 134 595 z m 84 600 q 89 591 86 584 q 83 576 76 572 q 70 568 62 570 q 55 571 50 580 q 40 593 38 608 q 35 623 36 638 q 38 654 44 669 q 49 684 56 697 q 58 701 63 704 q 68 707 72 708 q 88 710 100 704 q 113 697 122 686 q 130 674 134 660 q 139 645 138 631 q 138 623 132 617 q 126 611 118 611 q 109 610 101 614 q 93 618 87 624 q 82 624 76 626 q 76 611 84 600 z"},"=":{"x_min":0,"x_max":292,"ha":292,"o":"m 274 392 l 274 432 q 276 432 277 433 q 290 431 297 440 q 304 449 299 461 q 294 476 284 490 q 273 505 254 503 q 203 503 153 504 q 103 506 52 501 q 50 501 49 500 q 48 500 47 500 q 37 506 25 501 q 13 496 15 481 q 16 468 15 455 q 14 442 14 428 q 14 415 16 402 q 17 389 24 377 q 26 372 32 368 q 37 365 42 365 q 59 362 70 370 q 82 378 88 392 z m 274 208 l 274 233 q 288 240 296 254 q 303 267 302 282 q 301 297 292 310 q 284 323 267 328 q 225 326 180 326 q 135 326 93 314 q 73 314 54 308 q 36 302 22 287 q 12 279 14 267 q 14 259 16 252 q 19 244 21 236 q 24 227 31 224 q 38 220 45 222 l 45 208 z m 27 412 q 26 418 26 424 q 25 431 24 437 q 21 447 24 457 q 27 467 34 474 q 40 482 50 485 q 59 488 70 484 q 73 491 80 494 q 86 498 95 495 l 102 500 q 139 489 176 488 q 213 488 251 488 q 257 488 262 484 q 268 479 270 474 q 274 464 272 456 q 269 448 262 442 q 256 435 248 430 q 239 426 232 423 q 217 426 201 426 q 186 426 172 434 q 162 431 146 428 q 129 424 114 422 l 111 421 l 106 421 q 98 419 93 422 q 86 421 80 418 q 74 416 67 414 q 67 404 61 398 q 55 393 48 392 q 40 392 34 396 q 28 401 27 412 z m 43 256 q 33 258 29 265 q 25 272 26 280 q 28 287 34 292 q 41 298 51 296 l 56 295 q 59 303 69 304 q 98 307 126 310 q 153 314 182 313 q 191 313 196 308 q 206 309 216 310 q 244 312 271 302 q 284 298 286 286 q 289 275 284 266 q 280 257 272 250 q 264 244 254 240 q 243 237 233 237 q 229 236 223 238 q 217 241 214 244 q 209 252 202 255 q 194 258 186 258 q 177 257 168 254 q 160 252 153 251 q 143 251 137 257 q 114 253 90 251 q 66 249 43 256 z m 279 474 q 277 473 276 473 q 275 473 274 472 l 274 474 z"},"a":{"x_min":0,"x_max":374,"ha":374,"o":""},"L":{"x_min":0,"x_max":301,"ha":301,"o":"m 280 -26 l 280 10 q 288 15 294 24 q 301 32 299 43 q 308 60 306 80 q 304 99 294 114 q 283 128 266 134 q 250 141 230 132 q 225 129 220 128 q 214 127 208 126 q 199 133 188 134 q 178 136 167 135 l 167 460 q 177 467 181 477 q 185 487 186 499 q 188 511 189 523 q 190 535 193 546 q 197 587 198 628 q 199 669 186 708 q 184 713 180 717 q 175 721 170 723 q 166 730 160 732 q 154 735 148 736 q 141 737 134 738 q 128 738 122 741 q 102 751 80 748 q 59 746 42 735 q 25 724 14 706 q 4 687 6 664 q 8 647 5 628 q 2 608 2 589 q 2 571 8 555 q 13 539 31 527 l 34 525 l 34 -26 z m 25 655 q 16 673 22 690 q 29 708 43 719 q 57 730 75 732 q 93 734 107 719 q 116 720 125 720 q 134 721 142 719 q 169 701 178 674 q 187 647 186 617 q 185 587 180 556 q 174 526 173 500 q 173 490 166 485 q 160 480 152 475 q 144 477 137 480 q 130 483 124 488 q 124 496 122 504 q 119 511 116 519 q 115 514 114 510 q 114 507 114 503 q 112 492 105 488 q 105 483 105 479 q 105 475 106 471 q 106 460 100 455 q 93 450 85 450 q 78 450 72 455 q 66 460 66 471 q 65 488 66 506 q 66 523 66 540 q 60 539 56 540 q 48 536 38 540 q 29 543 27 554 q 26 559 26 564 q 25 568 25 573 q 17 591 20 613 q 22 635 25 655 z m 144 75 q 137 81 137 91 q 137 101 148 108 q 155 115 164 116 q 173 117 182 115 q 197 105 214 104 q 231 103 245 114 q 259 117 270 112 q 280 107 286 97 q 293 87 296 74 q 298 61 296 50 q 295 41 291 36 q 287 30 281 26 q 275 21 269 16 q 263 12 259 6 q 252 -4 241 -4 q 231 -4 225 7 q 220 11 219 16 q 218 22 218 28 q 216 28 215 29 q 204 25 193 32 q 182 38 177 49 q 174 47 171 44 q 167 45 164 46 q 161 46 157 47 q 138 52 143 71 q 143 72 144 73 q 144 74 144 75 z"},"3":{"x_min":0,"x_max":414,"ha":414,"o":"m 365 134 l 365 277 q 365 306 321 342 q 365 379 365 415 l 365 442 q 379 464 384 490 q 389 515 373 646 q 362 664 348 682 q 333 699 294 719 q 256 739 232 737 q 135 733 94 708 q 53 683 32 652 q 10 621 8 579 q 4 562 17 555 q 14 536 15 516 q 16 496 20 478 q 25 465 37 461 q 49 457 61 459 q 70 468 78 480 q 86 491 96 500 l 96 505 l 173 510 q 176 578 204 578 q 232 578 232 550 l 232 436 q 221 436 214 441 q 197 449 178 448 q 159 446 144 436 q 128 427 119 411 q 110 395 114 376 q 108 358 108 332 q 109 306 136 301 l 136 296 q 136 285 144 279 l 144 276 q 232 274 232 239 l 232 134 q 232 128 231 123 q 211 137 191 129 q 196 144 198 158 q 200 173 188 187 q 178 199 166 200 q 155 202 142 200 q 130 197 118 195 q 105 193 93 197 q 77 201 62 197 q 47 193 36 184 q 25 174 18 160 q 12 145 14 129 q 14 104 27 80 q 40 55 66 50 q 76 34 90 20 q 137 -26 204 -26 q 270 -26 318 20 q 365 67 365 134 z m 64 494 q 62 484 55 480 q 48 476 40 478 q 33 479 28 486 q 22 492 24 502 q 28 529 30 556 q 28 568 32 606 q 32 609 34 614 q 37 619 41 621 q 54 650 82 676 q 111 701 176 708 q 241 716 272 706 q 304 695 330 672 q 355 650 367 615 q 371 611 372 581 q 373 551 376 525 q 378 499 376 473 q 368 465 358 457 q 348 449 336 455 l 322 469 q 318 481 318 494 q 317 506 318 519 q 318 532 318 544 q 317 556 313 568 q 312 554 306 538 q 301 523 285 519 q 277 515 258 529 q 252 538 250 548 q 248 559 247 570 q 246 581 238 593 q 229 605 222 602 q 214 599 206 602 q 198 600 192 604 q 186 607 181 612 q 173 606 171 596 q 169 586 168 576 q 166 565 163 555 q 160 545 150 539 q 145 535 140 534 q 135 534 130 536 q 126 524 114 522 q 102 520 91 531 q 80 542 69 542 q 68 530 67 518 q 66 505 64 494 z m 88 86 q 83 72 76 68 q 70 65 61 68 q 55 69 50 72 q 46 74 41 78 q 37 92 32 106 q 26 119 29 134 q 29 146 36 154 q 42 162 52 166 q 61 170 72 170 q 82 169 90 174 q 99 178 115 179 q 131 180 142 168 q 146 172 149 174 q 174 176 179 166 q 186 153 187 138 q 188 124 187 110 q 201 121 220 118 q 239 116 250 101 q 258 90 246 65 q 233 40 234 30 q 234 19 228 14 q 221 9 213 9 q 206 9 200 14 q 194 19 194 30 q 164 58 154 62 q 145 67 145 81 l 122 95 q 116 97 112 100 q 107 104 102 106 q 101 106 100 106 q 99 105 98 105 z m 123 405 q 125 416 133 420 q 141 423 149 421 q 161 426 174 425 q 188 424 201 425 q 212 415 234 422 q 257 429 246 389 q 272 361 272 348 q 271 336 251 335 q 233 307 225 336 q 217 365 206 337 q 194 309 182 312 q 170 316 168 322 q 166 329 166 332 q 165 325 160 320 q 155 316 149 316 q 143 315 137 318 q 131 320 128 327 q 118 345 120 365 q 121 385 123 405 z"},";":{"x_min":0,"x_max":188,"ha":188,"o":"m 166 305 q 166 318 162 330 q 171 342 171 357 q 171 372 164 385 q 158 398 146 406 q 133 413 117 409 q 96 417 77 410 q 58 403 43 388 q 28 373 18 353 q 9 333 9 315 q 11 304 18 296 q 25 288 36 286 q 40 267 53 252 q 73 229 102 229 q 132 229 149 252 q 166 275 166 305 z m 63 1 q 84 -37 84 -59 q 84 -71 79 -82 q 147 -58 150 34 q 157 41 160 54 q 171 79 160 100 q 150 120 130 132 q 110 143 87 142 q 64 140 51 121 q 38 114 30 102 q 22 89 19 74 q 16 60 18 46 q 21 31 30 19 q 32 16 38 13 q 43 10 47 10 q 52 9 58 10 z m 135 25 q 130 11 116 10 q 102 10 97 24 l 95 29 q 93 28 91 26 q 82 19 73 22 q 64 24 60 33 q 52 24 39 26 q 26 28 25 45 q 20 66 32 82 q 43 98 61 106 q 67 115 76 119 q 85 123 95 122 q 105 122 114 117 q 123 112 129 104 q 146 96 149 75 q 152 54 138 40 q 138 36 137 32 q 136 28 135 25 z m 64 302 q 60 296 53 295 q 46 294 40 296 q 34 299 30 305 q 27 311 29 320 q 30 332 37 345 q 41 358 52 368 q 62 377 76 382 q 90 388 105 390 q 120 391 134 387 q 147 384 148 370 q 149 355 139 349 q 138 340 129 336 l 129 301 q 129 290 122 285 q 116 280 108 280 q 101 280 95 285 q 89 290 89 301 l 89 311 q 77 303 64 302 z"},"J":{"x_min":0,"x_max":421,"ha":421,"o":"m 206 736 q 198 713 196 689 q 194 665 195 641 q 196 617 198 593 q 200 569 200 545 l 210 535 q 220 525 232 530 l 232 134 q 232 106 204 106 q 179 106 176 128 q 185 124 195 130 q 205 135 205 147 q 206 155 204 162 q 203 170 201 178 q 203 197 203 215 q 203 234 185 246 q 174 253 162 253 q 151 253 139 251 q 127 249 116 248 q 104 246 93 249 q 70 250 50 236 q 29 222 18 202 q 8 182 10 160 q 13 137 35 121 q 39 116 44 115 q 50 60 90 20 q 137 -26 204 -26 q 270 -26 318 20 q 365 67 365 134 l 365 429 q 377 432 380 446 q 384 508 384 569 q 384 631 379 693 q 380 696 380 703 q 379 718 370 726 q 361 735 349 737 q 332 745 312 745 q 292 745 273 740 q 254 747 241 742 q 234 750 222 750 q 210 750 206 736 z m 212 707 q 215 722 228 724 q 242 725 249 715 q 250 716 250 717 q 251 718 252 719 q 273 720 294 724 q 316 728 336 720 q 350 722 357 711 q 364 700 368 689 q 367 683 366 677 q 366 671 365 664 q 370 659 370 653 q 370 643 368 639 q 365 607 366 574 q 368 542 368 510 q 369 488 366 463 q 364 455 359 452 q 354 449 348 448 q 342 445 338 445 l 326 445 q 317 448 312 456 q 310 434 309 412 q 308 390 306 367 q 305 359 298 355 q 292 351 284 352 q 277 352 272 356 q 266 361 266 369 q 268 407 266 446 q 265 484 263 522 q 255 528 250 541 l 241 538 q 224 533 217 549 q 199 586 202 627 q 204 668 212 707 z m 47 220 q 54 225 60 224 q 67 224 72 220 q 83 225 94 224 q 105 223 116 231 q 134 238 152 232 q 170 226 181 212 q 192 199 193 181 q 194 163 179 148 q 176 145 170 144 q 164 142 160 143 q 165 141 160 141 q 155 141 153 141 q 148 135 148 126 q 148 118 149 109 q 150 100 149 91 q 148 82 142 75 q 137 65 128 64 q 118 62 110 70 q 101 78 98 88 q 96 99 95 110 q 90 112 86 116 q 81 120 77 124 q 77 126 75 130 q 73 135 75 134 q 74 135 73 135 q 73 135 72 136 q 68 134 64 133 q 61 132 56 133 q 53 133 48 136 q 42 138 40 141 q 25 158 26 182 q 28 207 47 220 z"},"V":{"x_min":0,"x_max":399,"ha":399,"o":"m 200 510 q 198 509 197 509 q 196 509 194 508 l 178 623 q 189 639 192 660 q 196 682 190 702 q 185 721 172 734 q 158 748 136 748 q 121 751 105 750 q 89 749 76 747 q 65 748 54 747 q 44 746 34 741 q 24 745 14 740 q 4 735 6 721 q 8 687 9 652 q 10 616 14 581 q 18 546 27 513 q 36 480 54 451 q 53 431 54 410 q 56 388 72 372 q 75 366 82 364 l 137 -26 l 258 -26 l 337 522 q 351 532 357 548 q 363 564 368 601 q 372 638 378 654 q 379 661 382 668 q 385 674 387 681 q 389 688 390 694 q 390 701 386 709 q 382 713 380 718 q 379 724 377 729 q 351 741 321 739 q 304 746 285 746 q 266 746 250 739 q 233 732 222 718 q 212 705 213 685 q 208 660 210 634 q 212 609 214 584 l 203 510 z m 227 654 q 223 667 231 674 q 228 695 239 714 q 246 729 260 726 q 273 723 298 722 q 322 721 328 722 q 343 723 352 716 q 362 710 368 699 q 373 688 373 675 q 373 662 369 651 q 358 642 350 592 q 343 541 322 545 q 302 549 297 553 l 297 549 q 299 538 294 485 q 290 432 288 409 q 287 400 281 396 q 275 391 268 391 q 240 332 209 392 q 178 451 172 399 q 166 347 158 328 q 151 310 144 311 q 136 312 131 340 q 126 369 125 381 l 106 389 q 75 370 73 402 q 71 433 72 440 q 73 446 74 453 q 75 460 72 466 q 60 501 48 536 q 37 571 33 609 q 26 612 26 621 q 22 641 24 662 q 26 684 22 704 q 21 712 24 717 q 28 722 34 724 q 39 727 46 726 q 52 724 56 720 q 68 726 104 726 q 141 726 152 720 q 162 715 168 704 q 174 694 174 682 q 175 669 169 658 q 161 648 160 637 q 160 626 162 614 q 163 603 164 591 q 165 579 161 568 q 162 549 165 532 q 168 514 178 498 q 188 482 189 478 q 192 478 195 478 q 199 478 204 482 q 208 486 214 496 q 221 507 222 514 q 224 520 226 527 q 219 534 222 544 q 225 571 231 599 q 237 627 227 654 z"},"\"":{"x_min":0,"x_max":293,"ha":293,"o":"m 132 609 q 144 624 150 643 q 155 662 154 681 q 154 700 147 718 q 140 735 127 749 q 119 750 114 756 q 108 762 99 758 q 73 757 54 738 q 36 720 38 694 q 29 683 26 670 q 23 656 25 642 q 27 629 35 618 q 43 607 57 603 q 66 583 74 563 q 86 527 92 484 l 95 484 q 102 527 114 562 l 132 608 z m 197 563 q 209 527 215 484 l 219 484 q 225 527 238 562 l 245 579 q 265 583 278 602 q 292 620 283 641 q 281 664 280 686 q 278 708 268 729 q 266 734 260 738 q 254 742 249 742 q 241 741 234 744 q 227 748 219 750 q 198 741 182 721 q 167 701 160 678 q 154 654 159 631 q 164 608 184 593 q 191 578 197 563 z m 68 614 q 69 616 68 618 q 68 619 68 621 q 67 621 67 621 q 67 622 67 622 q 56 621 52 629 q 48 637 43 645 q 40 655 42 664 q 45 673 50 682 q 54 690 60 698 q 65 706 67 715 q 68 719 72 724 q 75 729 79 731 q 91 739 110 737 q 120 729 124 719 q 129 709 130 698 q 132 687 132 675 q 132 664 132 653 q 139 645 138 636 q 138 627 134 618 q 129 610 121 604 q 113 598 104 596 q 99 588 92 586 q 84 585 78 588 q 71 591 68 598 q 64 605 68 614 z m 184 615 q 175 619 172 627 q 170 635 171 644 q 172 652 175 660 q 178 669 179 675 q 178 679 180 685 q 181 691 184 694 q 194 708 209 720 q 224 731 243 722 q 262 701 264 670 q 267 640 258 614 q 250 609 244 608 q 242 600 241 597 q 239 589 232 586 q 226 583 220 584 q 213 584 208 589 q 202 594 202 602 q 202 604 202 604 q 201 605 201 607 q 192 608 184 615 z"},"7":{"x_min":0,"x_max":403,"ha":403,"o":"m 49 738 q 41 742 34 740 q 26 737 22 729 q 9 702 2 671 q -5 640 5 611 q 7 610 13 608 q 11 589 14 572 q 17 554 30 540 q 38 532 48 532 q 57 533 62 543 q 72 557 75 578 l 216 578 l 74 -26 l 207 -26 l 322 453 q 342 460 351 477 q 360 494 364 514 q 369 535 372 556 q 375 578 381 595 q 376 606 380 618 q 385 629 384 640 q 397 680 382 716 q 380 720 376 724 q 372 728 368 729 q 290 749 210 748 q 129 748 51 737 q 49 737 49 738 z m 64 577 q 64 566 58 561 q 51 556 43 556 q 36 556 30 561 q 24 566 24 577 q 23 589 24 601 q 26 613 28 625 l 20 627 q 20 627 18 629 q 6 634 7 650 q 7 667 12 682 q 17 698 28 710 q 47 724 69 726 q 91 729 114 727 q 169 741 226 735 q 284 729 337 712 q 337 712 340 709 q 351 711 358 706 q 366 700 371 692 q 378 686 377 674 q 378 666 377 659 q 377 650 370 643 q 367 623 366 603 q 365 583 362 563 q 360 543 356 524 q 351 505 341 487 q 336 479 328 476 q 320 474 312 479 q 310 480 308 482 q 306 483 304 485 q 299 480 293 479 q 287 478 282 480 l 282 477 q 281 470 281 463 q 281 457 278 451 q 275 441 267 438 q 259 435 251 438 q 252 421 254 405 q 256 389 254 373 q 254 362 248 357 q 241 352 233 352 q 226 352 220 357 q 214 362 214 373 q 216 399 212 425 q 208 451 211 477 q 205 483 208 496 q 214 521 219 546 q 224 572 229 598 q 187 594 147 594 q 107 593 65 599 q 64 593 64 588 q 63 582 64 577 z"},"S":{"x_min":0,"x_max":414,"ha":414,"o":"m 227 518 q 225 515 225 511 l 225 505 q 225 497 228 489 q 230 481 233 473 l 234 470 q 236 464 241 460 q 246 455 252 455 q 251 454 254 452 q 256 450 257 449 q 262 445 272 445 q 285 445 292 441 q 298 437 303 432 q 308 428 314 424 q 320 421 333 421 q 339 421 342 422 q 359 431 364 448 q 369 466 369 485 q 365 569 361 587 q 363 595 363 599 q 363 616 354 636 q 344 656 342 672 q 334 689 322 705 q 311 721 295 731 q 283 743 266 749 q 250 755 232 757 l 204 759 q 199 761 195 761 l 186 761 q 163 761 140 748 q 117 735 100 718 q 83 713 70 702 q 56 692 51 674 q 43 643 33 612 q 23 581 23 550 q 23 525 32 503 q 32 501 32 500 q 33 499 33 498 q 39 481 42 470 q 46 459 48 452 q 50 446 52 442 q 54 439 56 437 q 68 392 92 361 q 137 316 183 272 q 232 221 232 134 q 232 106 204 106 q 176 106 176 134 l 176 155 q 187 160 194 168 q 200 177 200 191 l 200 196 q 198 211 188 228 q 177 245 161 245 q 153 245 144 239 q 143 238 142 238 q 131 242 122 236 q 121 235 120 235 q 116 236 113 236 q 110 236 106 237 q 94 241 82 242 q 70 244 60 230 q 50 222 47 208 l 43 208 l 43 193 q 41 187 40 185 q 34 173 43 164 l 43 134 q 43 67 90 20 q 137 -26 204 -26 q 270 -26 318 20 q 365 67 365 134 q 365 245 316 313 q 270 361 225 410 q 176 467 176 550 q 176 578 204 578 q 232 578 232 550 l 232 527 q 228 523 227 518 z m 122 416 q 126 406 122 399 q 118 392 110 390 q 103 387 96 390 q 88 392 84 402 q 75 427 67 454 q 59 480 59 507 q 57 513 57 516 q 46 521 46 535 q 44 570 52 605 q 59 640 74 672 q 78 682 88 684 q 115 716 158 731 q 200 746 242 730 q 265 728 282 716 q 300 704 309 684 q 316 680 319 676 q 323 669 326 662 q 328 654 329 646 q 334 639 336 629 q 338 619 338 608 q 342 573 348 550 q 353 526 357 510 q 361 495 362 484 q 363 474 358 465 q 356 461 352 457 q 347 453 343 452 q 341 452 340 452 q 340 451 338 451 q 333 452 325 460 q 317 467 308 474 q 300 480 290 484 q 281 487 273 480 q 253 491 248 510 q 243 528 244 548 q 243 554 242 560 q 242 566 240 572 q 241 576 238 579 q 236 582 232 584 q 227 585 222 587 q 216 589 213 592 q 194 591 182 580 q 171 569 164 554 q 158 538 156 520 q 154 502 154 487 q 153 473 141 469 q 129 465 121 472 q 116 471 112 472 q 107 472 104 474 l 103 474 q 106 459 111 444 q 116 430 122 416 z m 69 225 q 78 232 87 229 q 96 226 100 218 q 107 219 118 222 q 129 225 140 226 q 151 226 161 222 q 171 219 177 207 q 183 202 184 194 q 186 187 182 181 q 177 168 165 164 q 153 159 141 158 q 135 152 134 142 q 133 131 132 118 q 132 106 130 94 q 128 82 119 74 q 111 63 100 65 q 90 67 85 78 q 79 87 78 96 q 77 106 77 116 q 77 126 77 136 q 77 147 73 156 q 61 159 56 168 q 50 178 50 188 q 50 199 55 209 q 60 219 69 225 z"},"Z":{"x_min":0,"x_max":416,"ha":416,"o":"m 279 736 q 219 733 188 732 q 157 732 126 734 q 96 735 68 743 q 65 742 61 741 q 57 740 56 739 l 52 739 q 44 744 34 741 q 23 738 20 726 q 8 714 11 697 q 17 647 33 542 q 33 536 38 531 q 42 526 48 524 q 81 526 90 539 q 100 552 105 559 q 107 559 110 558 q 112 558 114 558 q 122 561 132 562 q 141 562 158 564 q 176 565 183 570 q 202 583 203 562 l 42 63 q 43 52 43 -26 l 365 -26 q 390 67 390 81 q 390 96 382 108 q 374 121 357 127 q 319 132 280 127 q 242 122 204 122 l 365 621 l 365 668 q 369 677 368 688 q 368 698 368 708 q 368 717 362 722 q 355 728 279 736 z m 28 712 q 27 721 31 726 q 35 731 41 732 q 47 734 54 732 q 60 731 64 725 q 71 726 79 725 q 99 716 119 710 q 140 713 160 712 q 181 712 202 712 q 223 711 244 712 q 265 712 286 716 q 304 714 319 704 q 334 693 336 688 q 344 671 344 654 q 344 638 320 541 q 295 444 281 436 q 270 429 260 434 q 251 440 251 453 q 249 459 240 452 q 231 445 222 429 q 219 424 203 423 q 187 422 182 430 q 178 437 181 446 q 191 477 202 508 q 213 538 222 570 q 224 596 201 601 q 194 600 185 595 q 176 590 154 582 q 133 573 122 576 q 118 579 114 584 q 109 588 104 586 q 99 580 86 562 q 59 519 49 563 z m 193 87 q 204 104 216 104 q 250 103 351 110 q 360 104 365 94 q 370 83 370 72 q 370 62 357 44 q 344 26 332 16 q 321 6 307 12 q 301 14 298 17 q 296 17 295 18 q 287 20 280 22 q 274 25 266 29 q 264 27 262 27 q 251 22 229 36 q 207 51 193 87 z"},"x":{"x_min":0,"x_max":458,"ha":458,"o":""},")":{"x_min":0,"x_max":201,"ha":201,"o":"m 103 -26 q 89 -27 74 -33 q 60 -39 50 -50 q 40 -60 36 -74 q 33 -87 39 -103 q 47 -115 56 -118 q 66 -121 77 -119 q 91 -127 105 -124 q 119 -120 130 -110 q 141 -99 147 -84 q 153 -70 150 -55 q 149 -48 146 -44 l 146 -40 q 146 -28 145 -6 q 144 17 144 28 l 144 656 q 144 667 145 690 q 146 713 146 725 l 146 729 q 147 744 142 759 q 137 774 128 785 q 119 796 106 802 q 94 807 81 803 q 77 803 74 804 q 70 804 66 804 q 52 795 48 778 q 45 761 58 749 l 60 743 q 63 734 76 730 q 79 718 86 706 q 93 694 106 691 l 106 -25 q 104 -25 103 -26 z m 83 787 q 92 793 100 790 q 108 787 112 779 q 123 771 130 760 q 137 749 136 735 q 136 723 128 718 q 120 712 112 714 q 106 712 101 715 l 88 719 q 86 730 80 738 q 74 745 69 754 q 64 761 66 769 q 67 777 75 782 q 77 784 79 784 q 81 785 83 787 z m 92 -99 q 86 -107 78 -108 q 69 -108 63 -104 q 57 -99 56 -91 q 54 -83 60 -75 q 69 -62 82 -52 q 94 -41 111 -41 q 119 -41 124 -46 q 129 -50 130 -56 q 132 -63 130 -70 q 127 -76 120 -79 q 118 -81 115 -82 q 112 -82 110 -84 q 104 -86 103 -86 q 99 -88 96 -92 q 94 -95 92 -99 z"},"&":{"x_min":0,"x_max":494,"ha":494,"o":"m 464 -26 l 449 1 q 454 7 456 16 q 458 25 458 35 q 457 45 455 54 q 453 64 451 71 q 448 79 442 85 q 436 91 430 96 q 423 101 417 107 q 411 113 408 121 q 400 132 390 142 q 381 151 370 159 q 369 159 368 160 q 368 160 368 160 l 368 161 q 372 171 374 183 q 375 195 377 206 q 379 217 383 228 q 387 238 397 246 q 404 259 404 272 q 403 285 400 299 q 399 302 396 307 q 392 312 389 314 l 384 316 q 378 326 372 337 q 367 348 355 350 l 355 351 l 354 351 l 355 350 q 354 350 354 350 q 353 351 353 351 l 354 351 q 341 364 322 366 q 303 368 289 357 q 284 348 280 340 q 275 331 270 322 l 231 389 q 280 433 302 483 q 306 484 310 490 q 328 512 334 539 q 341 566 339 594 q 337 621 328 648 q 320 676 308 699 q 276 733 232 740 q 189 746 149 732 q 109 717 79 684 q 49 651 45 605 q 35 583 36 556 q 37 529 61 516 q 66 455 95 406 q 28 342 28 205 q 28 193 29 170 q 30 146 30 134 q 30 67 77 20 q 124 -26 191 -26 q 226 -26 256 4 q 282 31 292 68 l 349 -26 z m 73 533 q 64 531 58 538 q 51 544 51 553 q 49 570 54 586 q 59 601 67 615 q 69 623 68 632 q 68 641 76 647 q 80 651 83 653 q 101 682 130 699 q 160 716 192 720 q 225 723 256 712 q 288 700 310 672 q 320 652 326 629 q 331 606 330 582 q 330 558 322 536 q 315 514 298 497 q 290 489 282 490 q 275 490 270 494 q 264 499 262 506 q 261 514 267 522 q 260 524 256 531 q 252 538 254 546 q 252 548 250 550 q 249 553 247 555 q 248 575 234 588 q 219 602 201 604 q 198 604 197 605 q 189 603 181 600 q 173 596 166 592 q 157 594 154 588 q 150 581 148 573 q 147 568 141 562 l 141 547 q 136 536 137 524 q 138 511 140 499 q 145 500 152 497 l 151 496 q 152 496 152 496 q 152 497 153 497 l 152 497 l 158 503 q 159 501 159 500 q 159 500 160 498 q 155 498 153 497 q 155 496 156 495 q 158 494 160 492 q 160 494 162 494 q 161 495 161 496 q 161 497 160 498 q 162 498 163 498 q 164 497 166 497 q 168 498 175 498 q 175 498 175 498 q 175 499 176 499 q 181 503 188 503 q 195 503 200 499 q 216 488 218 468 q 220 449 210 433 q 208 407 210 382 q 211 357 210 331 q 210 320 204 315 q 197 310 189 310 q 182 310 176 315 q 170 320 170 331 q 170 353 170 374 q 169 396 170 418 q 167 420 165 425 q 160 430 160 435 q 159 440 160 446 q 156 448 155 452 q 150 450 144 452 q 143 441 131 429 q 122 418 110 421 q 99 424 96 438 q 94 448 95 458 q 96 467 93 476 q 80 486 78 500 q 77 515 81 529 q 79 530 76 533 z m 301 340 q 310 349 320 346 q 330 343 334 335 q 338 334 341 332 q 344 329 347 326 q 349 321 354 320 q 358 319 363 317 q 374 314 377 305 q 380 296 374 287 q 364 274 360 260 q 357 246 357 231 q 357 216 359 200 q 361 185 361 170 q 362 164 362 158 q 361 151 359 145 q 357 137 350 134 q 344 131 337 132 q 330 133 325 138 q 320 143 320 151 l 320 164 q 319 169 318 175 q 317 181 316 187 q 309 198 308 210 q 307 221 309 233 q 305 237 304 242 q 302 248 300 254 q 297 261 296 268 q 288 273 284 282 q 281 292 282 303 q 282 314 287 324 q 292 334 301 340 z m 123 104 q 113 112 115 124 q 113 131 111 138 q 109 145 108 152 q 106 162 112 168 q 117 174 124 175 q 132 176 139 172 q 146 168 148 158 q 148 149 151 142 q 151 142 151 142 q 151 143 152 143 q 154 143 155 144 q 156 144 158 144 l 166 144 q 171 145 175 146 q 179 148 184 149 q 196 152 204 142 l 207 142 q 219 136 222 126 q 232 116 225 104 q 225 97 225 90 q 225 83 227 78 q 233 65 226 56 q 219 48 209 48 q 202 45 193 49 q 193 44 194 40 q 194 37 195 32 q 196 22 190 16 q 185 10 178 10 q 170 9 163 14 q 156 18 155 28 q 153 39 153 51 q 153 64 153 76 q 145 83 138 90 q 131 97 123 104 z m 363 78 q 356 86 358 94 q 359 102 364 107 q 370 112 378 112 q 386 112 393 104 q 397 98 400 96 q 413 92 425 83 q 437 74 444 62 q 450 50 450 36 q 450 22 438 10 q 433 -1 423 -2 q 413 -3 405 6 q 397 14 390 22 q 384 31 381 42 q 373 46 370 54 q 367 61 370 69 q 366 71 363 78 z m 229 182 q 226 166 224 155 q 212 164 198 168 q 183 171 170 166 q 163 176 152 176 l 152 177 q 152 234 185 262 z m 226 537 q 226 520 220 506 q 216 512 215 515 q 209 518 203 520 q 197 521 191 523 q 186 524 180 522 q 178 525 176 528 q 174 531 171 534 q 166 540 157 542 l 157 543 q 157 578 191 578 q 226 578 226 537 z m 196 51 l 193 51 l 193 50 q 194 50 194 50 q 195 51 196 51 z m 225 113 q 225 113 226 114 q 226 114 227 114 q 225 114 225 115 z m 357 348 l 355 350 q 355 350 357 348 z m 256 542 q 256 543 256 544 q 255 544 255 545 q 255 543 256 542 z"},"_":{"x_min":0,"x_max":452,"ha":452,"o":"m 442 -187 l 29 -187 l 29 -96 l 442 -96 z"},"v":{"x_min":0,"x_max":399,"ha":399,"o":""},"O":{"x_min":0,"x_max":414,"ha":414,"o":"m 365 134 l 365 462 q 376 464 384 470 q 392 476 392 486 q 392 492 390 496 q 392 501 392 511 l 388 552 q 388 563 392 572 l 392 583 q 392 596 387 600 l 387 607 q 387 614 386 620 q 385 626 381 629 l 381 636 q 381 651 373 660 q 367 666 358 668 l 357 671 q 353 676 349 682 q 345 689 338 689 l 336 689 q 335 690 333 694 q 325 702 315 702 l 313 702 l 308 701 q 308 701 306 703 q 306 704 305 704 q 305 704 305 705 q 302 711 298 716 q 294 721 286 723 q 269 736 246 744 q 223 753 200 753 q 183 753 166 746 q 150 740 139 726 q 136 727 134 728 q 131 728 128 728 q 117 728 108 722 q 99 716 91 706 q 83 697 77 686 q 71 676 67 667 q 62 662 60 656 q 59 649 59 642 q 38 636 31 620 q 24 604 24 585 l 24 576 q 12 559 12 539 q 12 533 14 523 q 16 515 19 508 q 22 502 27 498 l 28 490 q 28 488 28 486 q 27 484 27 482 q 29 472 31 462 q 33 453 38 445 q 39 441 43 439 l 43 134 q 43 67 90 20 q 137 -26 204 -26 q 270 -26 318 20 q 365 67 365 134 z m 115 369 l 115 366 q 115 357 109 352 q 103 347 95 347 q 88 347 82 352 q 76 356 75 365 l 62 496 q 54 504 50 516 q 46 527 46 539 q 46 557 54 569 l 54 574 q 47 582 47 593 q 47 604 55 614 q 63 624 75 629 q 75 639 79 648 q 83 658 89 667 q 94 670 96 676 q 98 682 103 684 q 103 686 104 687 q 106 690 110 694 q 114 698 118 699 q 128 702 140 702 l 157 701 q 165 715 180 722 q 196 729 212 729 q 238 729 255 711 l 256 711 q 269 711 276 696 q 282 680 289 668 q 291 669 294 669 q 300 669 308 666 q 315 664 322 662 q 338 659 352 644 q 366 630 366 614 q 366 600 354 591 q 359 579 364 568 q 370 556 370 543 q 370 533 366 525 q 362 520 358 516 q 353 512 351 507 q 358 496 358 480 q 358 462 349 447 l 353 394 q 353 379 349 366 q 345 352 332 341 q 326 334 317 334 q 307 334 301 343 q 292 353 288 365 q 284 377 282 390 q 281 403 280 416 q 279 429 276 441 l 272 441 l 270 441 l 270 442 q 261 456 256 472 q 252 487 245 502 q 235 513 222 520 q 210 527 196 528 q 184 517 180 503 q 176 489 174 474 q 173 459 170 444 q 168 429 159 416 q 153 405 141 405 l 139 405 l 131 406 q 127 407 122 410 q 117 414 115 417 q 109 426 109 437 l 108 438 q 110 421 112 404 q 113 386 115 369 z m 204 106 q 176 106 176 134 l 176 394 q 185 403 188 416 q 192 428 194 441 q 197 454 198 468 q 200 481 204 493 q 215 478 219 460 q 223 442 232 426 l 232 134 q 232 106 204 106 z m 144 724 l 140 726 q 142 726 144 724 z m 61 643 q 60 643 60 642 q 60 642 60 642 q 60 643 61 643 z"},"(":{"x_min":0,"x_max":139,"ha":139,"o":"m 40 -83 q 34 -74 36 -66 q 39 -59 46 -55 q 52 -51 60 -52 q 68 -52 74 -61 q 82 -71 95 -80 q 108 -88 114 -100 l 111 -94 l 111 -71 q 69 -62 69 -37 l 69 669 q 69 670 70 671 q 70 672 70 674 q 70 676 70 678 q 71 680 71 683 q 59 680 50 689 q 39 698 40 711 q 42 724 50 734 q 52 741 58 744 q 60 758 68 770 q 75 782 86 787 l 89 795 q 90 793 90 791 q 90 790 91 788 q 103 790 113 786 q 119 784 124 778 q 128 773 128 767 q 127 749 122 731 q 117 713 103 701 q 94 692 83 694 q 80 686 71 683 q 78 668 87 660 q 96 651 107 654 q 118 657 121 670 q 124 685 128 703 q 132 721 133 738 q 134 756 130 772 q 126 788 113 800 q 97 808 80 802 q 64 795 53 783 q 48 778 46 771 q 28 756 28 725 q 28 713 29 690 q 30 686 30 682 l 30 678 q 29 674 31 668 l 31 28 q 31 17 29 -5 q 28 -24 28 -35 q 22 -39 19 -46 q 16 -53 21 -62 q 30 -75 32 -90 q 33 -104 38 -118 q 39 -122 43 -126 q 47 -130 51 -132 q 58 -136 65 -133 q 67 -143 72 -150 q 77 -158 88 -161 l 96 -161 q 100 -161 106 -158 q 111 -155 113 -151 q 126 -130 116 -105 q 118 -111 118 -116 q 119 -126 114 -132 q 108 -138 100 -139 q 93 -140 86 -136 q 79 -132 78 -122 q 75 -116 70 -112 q 65 -107 59 -103 q 53 -99 48 -94 q 43 -90 40 -83 z"},"C":{"x_min":0,"x_max":414,"ha":414,"o":"m 365 134 l 365 185 q 382 210 386 241 q 390 272 379 300 q 374 312 361 312 q 347 324 330 327 q 312 330 294 328 q 276 325 258 318 q 240 311 226 303 q 209 284 212 260 q 214 235 217 212 q 218 196 232 194 l 232 152 q 216 161 202 158 q 188 155 176 145 l 176 550 q 176 578 204 578 q 232 578 232 550 l 232 395 l 315 395 l 315 393 q 317 382 326 377 q 334 372 344 372 q 355 372 364 377 q 373 382 377 392 q 380 427 384 464 q 387 501 387 538 q 387 575 380 610 q 373 646 355 678 q 326 715 285 728 q 244 742 201 737 q 158 732 118 712 q 79 691 53 658 q 27 626 19 585 q 11 544 24 508 l 42 479 l 42 134 q 43 67 90 20 q 137 -26 204 -26 q 270 -26 318 20 q 365 67 365 134 z m 59 502 q 45 504 35 512 q 22 549 30 584 q 39 619 62 648 q 84 676 118 696 q 151 716 188 724 q 224 733 260 726 q 297 720 327 696 q 357 669 366 636 q 374 604 373 568 q 372 533 368 496 q 365 460 370 427 q 371 411 357 406 q 351 397 339 395 q 327 393 322 404 q 318 410 318 413 q 317 413 317 413 q 317 414 317 414 q 303 419 298 430 q 294 440 295 451 q 283 454 280 467 q 274 482 273 499 q 272 516 272 533 q 272 551 270 567 q 269 583 262 597 q 251 588 242 593 q 234 595 228 598 q 223 601 218 607 q 202 604 188 596 q 173 589 162 578 q 154 532 156 484 q 158 435 156 388 q 156 380 150 375 q 145 370 138 369 q 131 368 124 372 q 117 375 116 383 q 110 402 110 420 q 111 439 112 459 q 108 457 103 456 q 98 456 94 458 q 90 460 87 462 q 84 464 80 466 q 78 474 76 483 q 73 492 71 502 q 65 500 59 502 z m 227 276 q 229 286 236 290 q 243 294 251 292 q 259 301 271 306 q 283 311 294 313 q 317 317 336 306 q 354 294 364 276 q 374 257 372 236 q 370 215 351 199 l 348 196 q 343 169 340 142 q 336 114 335 87 q 335 76 328 71 q 322 66 314 66 q 307 66 301 71 q 295 76 295 87 q 295 95 296 102 q 296 110 296 118 q 287 109 276 113 q 265 117 263 131 q 260 150 260 168 q 261 187 258 207 q 245 208 237 215 q 229 222 226 232 q 222 242 222 254 q 223 265 227 276 z m 162 110 q 163 122 172 130 q 182 139 194 142 q 205 145 216 142 q 228 138 235 126 q 240 117 239 112 q 240 110 240 106 q 241 93 240 80 q 239 67 239 54 q 239 43 232 38 q 226 33 218 33 q 211 33 205 38 q 199 43 199 54 q 198 58 198 62 q 199 66 199 71 q 192 71 186 74 q 180 76 175 80 q 172 83 172 88 q 159 95 162 110 z m 355 312 q 356 312 356 312 q 356 313 357 313 l 358 312 z"},"W":{"x_min":0,"x_max":561,"ha":561,"o":"m 380 732 q 362 700 362 664 q 361 629 363 594 q 363 584 372 579 l 360 500 q 353 506 344 504 l 333 586 q 353 609 343 636 q 341 656 340 677 q 339 698 328 717 q 325 722 318 726 q 312 730 294 737 q 277 744 258 734 q 239 725 234 713 q 214 686 214 654 q 213 622 223 591 l 211 501 q 205 506 195 504 l 185 570 q 189 581 192 592 q 195 603 203 611 q 203 627 206 646 q 208 666 206 684 q 205 702 196 716 q 188 729 166 734 q 153 742 138 738 q 127 739 116 740 q 106 742 95 741 q 82 751 50 745 q 18 739 17 730 q 11 687 6 643 q 2 599 16 557 q 21 541 37 543 q 46 543 52 546 l 126 -26 l 237 -26 l 278 250 l 318 -26 l 429 -26 l 488 422 q 502 432 506 446 q 509 461 510 476 q 511 492 514 506 q 516 521 529 532 q 540 633 552 666 q 555 689 544 707 q 532 725 513 736 q 494 746 471 746 q 449 746 418 745 q 387 744 380 732 z m 317 400 q 297 419 286 429 q 278 430 274 441 q 270 450 267 459 q 265 457 264 455 q 264 453 262 451 q 258 443 247 441 q 216 400 202 400 q 191 399 182 404 l 164 414 q 157 416 153 421 q 151 408 147 398 q 144 391 138 388 q 133 384 127 384 q 121 385 116 388 q 111 392 109 400 q 106 408 104 417 q 103 426 101 435 q 93 435 87 440 q 81 444 81 453 q 81 478 76 503 q 70 528 74 553 l 73 554 q 59 554 54 566 q 46 564 40 569 q 33 574 31 584 q 24 617 24 669 q 24 722 72 725 q 81 722 90 713 q 100 715 109 712 q 113 714 118 715 q 128 717 138 716 q 149 716 159 712 q 169 709 175 700 q 181 688 184 673 q 187 658 186 643 q 184 628 178 615 q 171 602 158 595 q 159 593 159 592 l 160 590 q 168 562 174 534 q 179 505 183 476 q 188 478 196 480 l 196 479 l 197 478 q 200 479 202 478 q 205 478 208 477 q 213 495 220 513 q 226 531 232 550 q 237 568 240 586 q 243 605 240 625 q 235 633 236 642 q 237 650 240 659 q 243 668 247 676 q 251 685 253 693 q 288 735 309 687 q 321 665 324 641 q 328 617 328 592 q 328 568 327 543 q 326 518 328 494 q 334 492 339 483 q 344 475 346 466 q 349 456 353 448 q 357 449 360 450 q 364 451 369 451 q 377 461 378 474 q 378 488 380 501 q 378 513 380 525 q 382 537 386 548 q 389 560 392 571 q 396 582 398 594 q 389 602 386 612 q 384 622 384 633 q 384 644 386 655 q 389 666 391 676 q 392 680 392 697 q 392 715 415 715 q 439 715 443 710 l 444 709 l 446 710 q 448 710 450 711 q 460 722 476 714 q 492 705 504 695 q 510 694 514 689 q 519 684 521 679 q 526 662 525 646 q 525 637 523 628 q 523 627 524 626 q 524 626 524 626 l 507 544 q 502 522 500 500 q 498 478 490 458 q 487 450 480 446 q 474 411 469 376 q 464 341 456 306 q 454 295 443 292 q 432 290 424 296 q 422 293 419 292 q 413 289 407 290 q 401 291 396 295 q 390 299 389 307 q 384 328 386 349 l 388 366 q 382 370 317 400 z"},"A":{"x_min":0,"x_max":374,"ha":374,"o":"m 357 -27 l 283 494 q 290 499 291 506 q 292 512 292 518 q 293 523 293 529 q 298 580 298 632 q 299 684 290 736 q 279 752 262 762 q 245 771 226 774 q 208 776 190 772 q 171 768 156 756 q 148 763 138 762 q 127 762 122 749 q 112 720 101 690 q 90 661 82 630 q 75 599 72 568 q 70 538 77 508 q 82 503 87 498 q 92 492 100 493 l 101 492 l 26 -27 l 158 -27 l 165 57 l 220 57 l 226 -27 z m 100 523 q 89 549 90 574 q 92 598 115 687 q 125 718 130 728 q 135 739 147 739 q 158 746 173 747 q 188 748 216 749 q 244 750 249 743 q 258 735 267 726 q 276 716 276 702 q 284 661 279 526 q 269 457 244 514 q 241 490 234 392 q 227 294 219 419 q 214 407 201 407 q 188 313 183 416 q 179 415 173 417 q 172 392 171 368 q 170 343 145 274 q 139 299 133 304 q 127 310 128 321 q 131 372 128 416 q 126 459 126 485 q 126 511 120 510 q 114 509 108 512 q 103 515 100 523 z m 149 82 l 146 85 q 142 88 141 93 q 133 107 155 126 q 177 145 188 138 q 206 141 222 117 q 239 93 225 88 q 219 79 207 79 q 206 78 204 78 q 190 71 175 68 q 160 66 149 82 z m 182 275 l 202 275 l 210 151 l 205 151 q 202 154 196 156 q 191 159 187 158 q 182 157 174 155 z"},"f":{"x_min":0,"x_max":349,"ha":349,"o":""},"Q":{"x_min":0,"x_max":421,"ha":421,"o":"m 384 -99 l 384 23 q 330 15 303 8 q 359 76 359 134 l 359 403 q 379 418 388 444 q 397 469 389 496 q 384 506 386 516 q 387 526 388 536 q 390 546 390 556 q 389 566 382 575 q 381 580 378 587 q 374 594 373 597 q 378 608 375 619 q 372 630 365 639 q 370 660 358 679 q 346 698 332 713 q 328 730 316 738 q 303 747 288 749 q 272 751 256 746 q 241 742 232 733 q 212 756 185 763 l 185 764 q 167 775 147 772 q 127 769 110 758 q 92 748 80 732 q 67 717 65 703 q 62 701 60 698 q 57 694 55 691 q 37 683 26 664 q 16 645 8 628 q 10 621 12 614 q 14 608 16 601 l 12 597 q 3 580 -2 560 q -7 540 -6 520 q -6 501 0 482 q 7 464 21 449 q 28 440 37 435 l 37 134 q 37 68 82 21 q 128 -26 194 -26 l 234 -26 q 186 -66 170 -92 l 266 -160 q 311 -103 384 -99 z m 51 460 q 34 477 30 501 q 26 525 24 548 q 23 552 26 558 q 28 563 31 565 q 39 572 46 580 q 54 587 57 597 l 57 603 q 48 616 49 630 q 50 643 58 656 q 65 668 78 677 q 90 686 104 690 q 106 698 108 705 q 110 712 115 719 q 122 735 134 740 q 147 745 160 742 q 173 740 185 731 q 197 722 203 710 q 212 709 223 704 q 226 701 230 700 q 234 699 238 698 q 248 701 254 705 q 262 714 272 715 q 283 716 293 712 q 303 707 310 698 q 316 689 317 677 q 324 669 320 659 q 317 649 319 643 q 326 642 333 634 q 340 627 344 616 q 348 606 348 594 q 349 582 343 573 q 341 570 342 565 q 344 560 347 554 q 350 549 352 543 q 355 537 355 532 q 352 520 352 507 q 351 494 352 482 q 352 469 351 456 q 350 443 345 431 q 341 429 338 426 q 336 424 334 422 q 337 387 336 352 q 334 317 332 282 q 333 271 334 256 q 335 242 325 232 q 317 219 306 220 q 294 222 289 232 q 284 234 283 237 q 272 249 268 263 q 263 277 261 292 q 259 307 258 322 q 257 338 254 353 q 268 378 266 409 q 261 420 262 430 q 254 441 254 456 q 253 471 253 486 q 253 501 250 516 q 248 530 237 541 q 229 536 221 536 q 213 537 206 541 l 206 532 q 206 512 195 498 q 184 483 171 470 q 158 456 148 440 q 138 425 141 404 q 144 389 136 378 q 129 368 117 364 q 105 359 92 362 q 79 364 71 376 q 64 413 59 453 q 55 454 51 460 z m 226 134 q 226 106 198 106 q 169 106 169 134 l 169 437 q 180 435 192 441 q 203 447 209 458 q 216 466 220 478 q 224 491 226 503 z m 240 722 q 238 722 238 725 q 238 724 240 722 z"},"w":{"x_min":0,"x_max":561,"ha":561,"o":""},"-":{"x_min":0,"x_max":337,"ha":337,"o":"m 284 211 q 292 207 300 208 q 309 209 317 211 q 330 232 334 256 q 337 279 337 303 q 337 327 338 351 q 338 375 346 398 q 345 412 336 422 q 327 431 315 436 q 303 440 290 438 q 278 437 269 428 q 253 434 237 434 q 221 435 204 434 q 188 434 172 435 q 156 436 141 444 q 134 442 128 440 q 121 438 115 435 q 102 434 88 430 q 75 425 65 437 q 45 436 32 424 q 19 412 14 395 q 8 378 9 359 q 10 340 18 325 q 20 318 27 314 q 34 309 41 311 l 41 276 l 268 276 q 266 258 268 242 q 271 225 284 211 z m 78 326 q 59 321 42 334 q 26 347 23 366 q 19 380 24 392 q 29 404 40 411 q 50 418 62 418 q 75 418 86 409 q 97 417 111 417 q 125 417 139 417 q 150 426 163 424 q 176 421 187 413 q 198 415 208 413 q 218 411 229 407 q 246 412 264 414 q 283 415 300 422 q 311 427 320 421 q 328 415 328 404 l 328 392 q 328 383 325 379 q 330 350 328 320 q 326 290 329 261 q 329 253 324 248 q 319 243 312 242 q 305 241 299 244 q 293 247 290 255 q 284 271 282 288 q 279 305 278 322 q 262 320 247 324 q 232 329 218 335 q 210 341 203 344 q 203 332 206 322 q 210 312 206 305 q 202 298 194 296 q 187 293 180 296 q 172 298 168 308 q 166 313 165 318 q 164 322 163 327 q 162 326 161 326 q 161 326 160 325 l 160 324 q 164 319 164 311 q 164 304 157 297 l 150 290 q 145 285 138 284 q 132 284 126 287 q 121 290 118 296 q 115 301 117 309 q 118 314 119 320 q 120 326 118 332 q 113 334 107 337 q 101 340 96 342 q 94 336 90 332 q 86 327 78 326 z"},"E":{"x_min":0,"x_max":385,"ha":385,"o":"m 175 276 l 239 276 q 240 268 246 264 q 252 259 259 259 q 271 259 282 309 q 294 359 294 390 q 294 399 294 407 q 294 416 293 424 q 291 439 280 446 q 270 454 257 454 l 217 447 q 196 447 175 439 l 175 578 l 310 578 l 313 570 l 326 566 q 327 566 328 566 q 328 565 330 565 q 340 565 346 571 q 354 577 357 585 q 360 593 361 693 q 361 704 358 714 q 354 725 343 733 q 333 735 327 735 l 278 730 q 267 730 258 734 q 245 735 207 736 l 137 735 q 117 735 98 736 q 79 737 61 740 q 34 738 27 720 q 20 701 20 678 l 21 647 q 18 574 18 550 q 22 482 27 459 q 30 445 42 443 l 42 -26 l 323 -26 q 328 -30 336 -30 q 352 -30 360 19 q 368 68 368 85 q 368 97 365 109 q 362 121 354 132 q 337 139 320 142 q 303 144 286 144 q 258 144 230 140 q 202 135 175 131 z m 36 476 l 36 514 q 33 529 34 584 q 36 638 37 693 l 37 695 q 37 700 40 705 q 43 710 47 712 q 60 720 73 723 q 107 721 140 716 q 174 711 208 711 q 235 711 264 717 q 273 715 283 715 q 293 715 302 714 q 312 714 322 712 q 331 710 339 703 q 343 701 346 696 q 348 691 348 686 l 348 684 q 343 644 344 620 q 345 595 338 590 q 332 585 324 585 q 319 585 314 588 q 309 591 307 597 q 304 606 302 616 q 300 625 295 634 q 289 628 280 628 q 268 628 263 639 l 262 643 q 257 629 244 629 q 231 629 228 626 q 225 622 222 620 q 216 615 210 613 q 203 611 197 611 q 185 611 174 618 q 164 624 158 635 q 153 634 143 630 q 139 587 138 544 q 138 502 133 459 q 132 449 126 445 q 120 441 113 441 q 105 441 76 473 q 63 455 56 455 q 48 455 42 460 q 36 465 36 476 z m 179 105 q 180 111 184 116 q 189 120 248 125 q 308 130 325 125 q 345 120 352 106 q 358 91 358 73 q 341 -2 333 -2 q 327 -2 322 2 q 316 5 314 12 q 310 23 308 34 q 306 45 303 56 q 298 56 292 59 l 278 59 q 270 64 264 65 q 263 65 262 64 q 262 64 262 64 q 260 54 252 44 q 243 34 226 35 q 210 36 205 48 q 200 59 195 70 q 192 71 186 75 q 175 80 175 92 q 175 100 179 105 z m 175 429 q 237 432 246 439 q 253 436 260 437 q 268 438 273 432 q 276 430 279 424 q 282 419 282 415 q 284 397 286 378 q 287 360 265 289 q 258 289 252 292 q 247 296 245 304 q 241 314 240 325 q 240 336 239 347 q 234 344 229 344 q 218 344 177 374 q 154 417 159 423 q 164 429 175 429 z m 183 372 q 183 372 183 372 q 184 372 185 373 q 184 373 184 374 l 181 374 z"},"s":{"x_min":0,"x_max":414,"ha":414,"o":""},">":{"x_min":0,"x_max":309,"ha":309,"o":"m 62 183 q 64 174 72 170 q 79 165 88 168 q 107 172 266 314 q 276 316 280 326 q 281 327 283 331 l 288 336 l 283 340 q 282 347 277 353 q 278 363 270 370 q 261 377 259 388 q 257 390 255 394 q 254 396 254 398 q 253 399 252 401 q 242 416 230 424 q 214 466 192 480 q 169 493 162 496 q 155 499 150 502 q 142 508 134 505 q 133 505 133 505 q 133 506 133 506 q 119 516 104 512 q 88 507 75 500 q 72 498 69 492 q 66 487 66 483 q 64 473 69 464 q 74 456 82 451 q 89 446 204 358 q 170 339 135 296 q 104 290 62 183 z m 85 458 q 75 470 75 477 q 75 485 80 492 q 85 498 96 498 q 107 503 120 502 q 132 500 139 489 q 202 450 212 437 q 222 424 234 413 q 236 404 242 396 q 249 389 255 382 q 261 374 264 365 q 268 356 264 345 q 262 335 255 331 q 248 327 240 328 q 233 329 228 335 q 222 341 224 351 l 225 357 q 216 364 208 375 q 200 386 85 458 z m 103 187 q 94 182 86 185 q 79 188 87 208 q 95 228 104 238 q 112 247 120 258 q 127 268 135 278 q 143 289 155 295 q 158 295 160 297 l 171 305 q 178 313 185 322 q 192 332 205 335 q 219 340 228 330 q 237 320 230 307 q 220 287 204 272 q 187 256 176 237 q 171 229 164 228 q 156 228 150 232 q 139 219 128 207 q 118 195 103 187 z"},"l":{"x_min":0,"x_max":301,"ha":301,"o":""},"8":{"x_min":0,"x_max":414,"ha":414,"o":"m 365 134 l 365 248 q 365 296 328 342 q 365 388 365 436 l 365 464 q 377 464 383 475 q 394 504 392 533 q 390 562 382 590 q 373 619 361 647 q 349 675 341 702 q 333 715 321 724 q 309 734 292 731 q 284 738 272 737 q 259 736 249 741 q 214 741 174 731 q 135 721 102 702 q 68 682 46 651 q 24 620 24 578 q 17 549 15 517 q 13 485 33 459 q 38 452 43 451 l 43 436 q 43 388 80 341 q 43 294 43 248 l 43 134 q 43 67 90 20 q 137 -26 204 -26 q 270 -26 318 20 q 365 67 365 134 z m 117 393 l 109 393 q 102 393 94 436 q 87 478 85 499 q 82 487 78 477 q 73 467 59 465 q 50 463 42 468 q 35 473 34 482 q 32 508 30 534 q 27 560 38 585 q 38 586 38 586 q 39 587 39 588 l 39 590 q 39 593 40 594 l 40 600 q 41 610 46 619 q 50 628 57 636 q 63 644 70 652 q 77 659 85 667 l 85 666 q 86 667 86 668 q 87 669 88 670 q 89 671 90 671 q 91 671 92 672 q 127 701 174 714 q 220 728 264 724 q 291 722 309 708 q 327 694 339 673 q 351 652 358 628 q 366 603 371 582 q 370 570 372 558 q 374 546 376 534 q 379 523 380 510 q 381 498 378 485 q 376 477 370 473 q 365 469 358 469 q 353 465 346 467 q 345 466 343 462 q 343 455 342 448 q 341 442 340 436 q 339 428 332 424 q 326 420 312 436 q 298 452 303 466 q 305 478 304 490 q 302 501 294 509 q 292 503 290 494 q 289 485 286 479 q 283 472 277 469 q 271 466 264 466 q 258 467 253 471 q 248 475 247 483 q 242 509 244 535 q 246 561 238 587 q 224 597 204 602 q 185 607 173 596 q 161 584 161 579 l 161 561 q 160 539 158 518 q 155 497 153 475 l 153 467 q 152 457 144 453 q 136 449 128 451 q 129 442 117 393 z m 176 133 l 176 248 q 176 275 203 275 q 232 275 232 248 l 232 138 q 203 149 176 133 z m 159 409 q 173 425 194 432 q 216 439 236 427 q 247 421 248 410 q 249 398 238 392 q 239 375 218 307 q 211 307 205 312 q 199 317 199 328 q 198 337 198 346 q 199 355 199 365 l 197 365 q 190 363 186 367 q 182 371 178 375 q 171 372 165 375 q 159 378 156 383 q 152 388 152 396 q 153 403 159 409 z m 244 111 q 257 104 255 90 q 253 76 235 64 q 217 51 202 51 q 202 42 203 37 q 203 26 196 21 q 190 16 176 21 q 163 26 158 58 q 152 91 152 97 q 153 103 158 108 q 162 113 170 114 q 174 114 182 116 q 192 120 209 118 q 229 118 244 111 z m 176 550 q 176 578 204 578 q 232 578 232 550 l 232 453 q 216 463 199 454 q 187 451 176 440 z"},"\\":{"x_min":0,"x_max":376,"ha":376,"o":"m 349 -26 l 301 -26 l 59 711 l 104 711 z"},"e":{"x_min":0,"x_max":385,"ha":385,"o":""},"b":{"x_min":0,"x_max":412,"ha":412,"o":""},"%":{"x_min":0,"x_max":409,"ha":409,"o":"m 208 474 l 208 570 q 215 576 217 586 q 219 597 226 605 q 231 617 230 629 q 228 641 224 652 q 219 663 213 674 q 207 686 204 697 q 183 728 150 734 q 118 739 88 726 q 57 714 36 687 q 14 660 15 625 q 13 614 12 603 q 11 592 14 581 q 16 572 22 568 q 27 564 34 564 l 34 474 q 34 438 60 412 q 85 387 121 387 q 157 387 182 412 q 208 438 208 474 z m 387 59 l 387 175 q 388 177 390 183 q 406 210 400 240 q 394 270 374 292 q 354 313 324 321 q 295 329 265 313 q 245 304 227 286 q 209 267 200 245 q 190 223 192 200 q 193 177 211 160 q 211 160 213 158 l 213 59 q 213 24 238 -1 q 264 -26 300 -26 q 336 -26 362 -1 q 387 24 387 59 z m 151 710 q 150 710 150 710 q 151 711 150 711 l 153 711 l 153 710 q 158 708 164 706 q 169 705 174 703 q 187 692 197 676 q 207 661 212 644 q 216 626 212 608 q 209 591 195 577 q 187 567 176 570 q 164 572 161 585 q 158 596 154 608 q 151 619 147 630 q 143 647 126 652 q 110 658 97 645 q 83 634 84 620 q 86 605 85 591 q 90 578 80 568 l 78 566 q 69 557 58 560 q 48 562 45 572 q 39 571 33 575 q 27 579 24 584 q 19 606 26 628 q 32 651 46 670 q 60 689 79 702 q 98 716 119 719 q 127 722 136 719 q 144 716 150 711 l 148 712 q 149 711 149 711 q 150 711 151 710 z m 306 698 q 307 708 314 712 q 320 717 328 716 q 335 715 341 710 q 347 704 346 690 q 344 676 345 658 q 346 639 338 621 q 331 603 325 579 q 337 579 343 591 q 360 698 359 706 q 358 713 354 720 q 350 726 342 729 q 331 734 322 729 q 315 725 312 718 q 303 699 298 678 q 294 657 274 587 q 254 517 242 478 q 230 439 204 406 q 197 395 193 383 q 189 371 186 359 q 175 337 170 313 q 164 289 160 274 q 157 260 139 203 q 121 146 110 113 q 99 80 89 48 q 79 15 73 -19 q 73 -30 82 -36 q 90 -42 101 -37 q 116 -33 122 -22 q 128 -11 130 2 q 133 15 135 28 q 137 42 144 64 q 151 87 160 121 q 168 155 192 232 q 217 308 222 322 l 222 333 q 222 339 228 352 q 235 366 256 384 q 262 373 277 372 q 283 370 290 374 q 296 378 299 384 q 307 396 308 408 q 309 421 307 460 q 307 473 313 485 q 311 490 311 495 q 306 463 293 436 q 291 428 294 420 q 298 412 293 404 q 289 392 278 390 q 267 387 259 395 q 250 388 242 391 q 240 389 228 362 q 215 335 205 328 q 203 326 199 324 q 194 306 190 288 q 187 270 166 212 q 155 177 146 141 q 137 105 110 4 q 109 2 107 0 q 109 -4 106 -9 q 105 -11 104 -12 q 104 -12 103 -14 q 99 -21 92 -20 q 84 -18 84 -10 l 84 0 q 84 4 102 62 q 120 121 153 237 l 164 244 q 178 327 184 343 q 189 359 196 369 l 207 386 q 215 402 224 416 q 232 431 242 445 q 244 472 252 497 q 260 522 270 544 q 279 565 292 598 q 304 630 305 644 q 306 657 306 698 z m 202 192 q 197 224 216 250 q 236 277 264 290 q 285 302 308 301 q 330 300 349 289 q 368 278 379 258 q 390 239 388 215 q 388 209 384 204 q 379 198 373 196 q 357 188 346 200 q 335 211 332 225 q 320 235 305 239 q 290 243 276 238 q 275 236 270 234 q 266 232 264 229 q 260 217 260 204 q 261 192 263 179 q 265 166 266 153 q 268 140 266 128 l 266 126 q 266 123 264 121 q 262 117 260 115 q 259 115 258 114 q 258 114 257 114 q 257 114 253 112 l 252 112 q 251 112 250 112 q 250 111 249 111 q 242 110 236 113 q 229 116 227 122 l 226 123 l 226 132 q 226 151 223 172 q 215 171 209 176 q 203 181 202 192 z m 280 210 q 280 231 300 231 q 320 231 320 210 l 320 71 q 310 76 299 74 q 288 73 280 67 z m 101 624 q 101 645 121 645 q 142 645 142 624 l 142 494 q 131 499 118 494 q 106 490 101 479 z m 270 24 q 265 31 268 38 q 270 44 274 50 q 276 55 282 60 q 287 64 293 64 q 304 66 312 60 q 319 53 325 46 l 325 30 q 324 16 312 10 q 299 5 287 7 q 285 8 282 11 q 274 14 270 24 z m 101 468 q 102 469 102 470 q 103 471 104 472 q 107 477 112 478 q 116 480 121 480 q 132 486 141 477 l 133 474 q 138 471 141 466 q 142 468 142 470 q 143 471 145 473 q 144 476 141 477 l 149 480 q 147 478 146 476 q 146 475 145 473 q 154 462 145 448 q 140 443 135 436 q 130 430 122 429 q 120 428 119 428 q 118 428 116 427 l 118 429 q 117 429 116 430 q 112 430 107 432 q 102 435 99 438 l 99 428 q 106 424 114 427 l 116 427 l 99 410 l 99 428 q 92 431 90 440 q 87 448 92 456 q 95 463 101 468 z m 312 504 q 315 514 318 524 q 321 533 324 542 q 326 551 324 562 q 324 569 323 572 q 315 538 311 502 l 311 501 q 312 503 312 504 z m 84 628 l 68 612 q 71 609 73 602 q 80 599 84 593 z m 151 710 q 152 709 152 709 q 153 709 154 708 q 154 708 154 708 q 154 709 153 710 z m 311 498 q 312 499 311 501 z"},"m":{"x_min":0,"x_max":542,"ha":542,"o":""},"#":{"x_min":0,"x_max":372,"ha":372,"o":"m 269 555 q 258 555 253 561 q 248 567 248 574 q 248 582 253 588 q 258 595 269 595 l 314 595 q 309 597 303 598 q 297 599 292 601 l 338 601 l 340 607 l 341 607 q 355 607 360 619 q 365 631 355 641 q 344 656 324 656 q 333 675 338 695 q 338 701 334 706 q 329 712 324 714 l 323 714 q 308 726 292 725 q 277 724 264 714 q 252 704 244 688 q 236 673 236 657 l 234 657 q 240 655 246 655 q 252 655 258 654 q 256 657 256 664 q 254 681 265 692 q 276 703 287 713 q 294 717 300 716 q 307 715 312 711 q 316 707 318 700 q 320 694 317 688 q 317 686 318 684 q 318 683 318 681 q 321 664 304 652 q 310 650 312 650 q 315 652 318 651 q 322 650 326 651 q 336 652 342 646 q 347 641 348 634 q 348 626 343 619 q 338 612 328 611 l 327 611 q 318 604 308 608 q 294 613 279 614 q 264 614 249 615 q 234 616 220 618 q 205 620 192 628 q 173 611 146 610 q 119 609 96 614 q 86 616 82 623 q 78 630 79 638 q 80 645 86 650 q 92 656 102 654 q 114 650 131 650 q 126 659 134 670 q 142 684 154 696 q 165 708 180 714 q 187 717 194 715 q 200 713 204 708 q 207 703 208 696 q 208 690 205 685 q 206 679 203 672 q 203 671 202 671 q 202 671 202 670 q 208 665 218 661 q 226 676 227 693 q 228 710 215 723 q 210 729 202 730 q 194 731 188 726 q 170 728 158 714 q 145 701 130 694 q 110 676 112 653 q 98 659 82 653 q 67 647 60 633 q 54 623 57 614 q 60 604 71 602 l 71 601 l 118 601 l 112 587 q 93 595 72 590 q 81 589 90 587 q 99 585 107 584 q 108 584 110 584 q 111 585 112 585 q 122 587 128 582 q 135 576 136 568 q 138 561 134 554 q 130 547 120 545 q 106 543 93 545 q 80 547 66 550 q 58 550 51 555 q 53 553 53 553 l 48 540 l 94 540 l 68 473 l 115 473 l 142 540 l 207 540 l 186 473 l 235 473 l 261 540 l 314 540 l 315 543 l 326 543 q 337 543 344 551 q 350 559 345 570 q 340 582 332 588 q 340 579 336 567 q 331 555 316 555 z m 175 555 q 165 555 160 560 q 155 566 154 572 q 153 579 157 586 q 161 592 169 594 q 167 595 166 596 q 166 596 164 597 l 166 601 l 232 601 l 230 596 q 236 593 240 588 q 243 582 242 576 q 242 569 238 564 q 234 558 226 557 q 213 555 200 555 q 188 555 175 555 z"},",":{"x_min":0,"x_max":168,"ha":168,"o":"m 148 9 q 148 9 148 9 q 148 10 149 11 q 156 27 162 48 q 168 70 166 90 q 165 111 154 126 q 144 141 119 145 q 102 146 85 142 q 68 138 54 129 q 41 120 32 106 q 23 92 22 73 q 19 47 29 22 q 39 -2 60 -16 q 66 -21 74 -21 q 84 -44 84 -59 q 84 -71 79 -82 q 137 -61 148 9 z m 74 -1 q 54 4 46 20 q 38 37 40 56 q 43 75 54 92 q 65 108 82 114 q 98 123 114 118 q 130 113 140 101 q 150 89 150 73 q 151 57 137 44 q 136 41 133 40 q 131 26 120 18 q 108 9 95 7 l 94 7 q 88 -4 74 -1 z"},"n":{"x_min":0,"x_max":421,"ha":421,"o":""},"h":{"x_min":0,"x_max":421,"ha":421,"o":""},"z":{"x_min":0,"x_max":416,"ha":416,"o":""},"B":{"x_min":0,"x_max":412,"ha":412,"o":"m 365 137 l 365 212 q 376 245 365 278 q 354 311 329 334 q 325 338 318 339 q 312 340 307 338 l 301 335 q 296 338 290 341 q 365 376 365 453 l 365 465 q 370 468 373 474 q 377 486 382 494 q 388 502 384 516 q 391 555 384 594 q 376 634 362 671 q 346 680 332 694 q 318 709 303 722 q 288 735 270 742 q 253 748 231 741 q 229 740 228 739 q 226 738 224 737 q 195 748 164 751 q 134 754 105 745 q 86 755 70 746 l 64 744 q 60 742 60 742 q 30 747 26 734 q 13 699 8 663 q 3 627 3 590 q 3 554 6 518 q 10 481 14 445 q 15 434 24 429 q 33 424 42 428 l 42 -26 l 218 -26 q 281 -26 324 25 q 365 73 365 137 z m 35 449 q 18 507 22 566 q 26 626 30 685 q 34 705 52 716 q 70 726 90 723 q 91 722 92 722 q 93 721 94 720 q 125 741 162 736 q 199 732 227 709 q 235 710 242 712 q 248 715 255 719 q 260 721 266 720 q 273 719 277 716 l 277 715 q 283 715 289 712 q 326 692 348 655 q 369 618 370 577 q 371 563 370 548 q 369 534 366 521 q 364 510 347 486 q 330 461 319 502 q 308 542 303 548 q 301 516 302 485 q 304 454 303 422 q 303 411 298 386 q 294 360 282 401 q 274 328 263 422 q 264 430 264 456 q 255 454 247 458 q 239 462 239 473 q 238 498 239 523 q 240 548 238 574 q 234 578 234 584 q 229 592 220 598 q 210 603 205 612 l 204 612 q 204 611 202 610 q 201 610 201 610 q 189 602 179 609 q 171 581 169 552 q 167 523 168 493 q 168 463 168 433 q 169 403 165 374 q 163 366 153 380 q 143 395 138 338 q 133 281 127 344 q 121 408 122 440 q 123 472 121 504 q 116 500 106 500 l 109 458 q 109 449 105 444 q 101 438 94 390 q 87 343 82 390 q 76 438 72 444 q 71 419 55 426 q 39 432 35 449 z m 271 299 q 281 316 294 316 q 331 325 345 292 q 359 259 360 238 q 361 218 357 201 q 352 189 342 187 q 333 185 325 190 q 325 184 325 178 q 325 173 326 167 q 327 157 321 151 q 315 145 301 149 q 287 153 286 163 q 284 189 271 299 z m 232 455 q 232 444 227 433 q 216 442 202 445 q 187 448 175 443 l 175 578 l 193 578 q 232 578 232 533 z m 232 151 q 232 146 231 142 q 220 155 204 160 q 189 165 175 155 l 175 275 l 193 275 q 209 275 220 260 q 232 245 232 229 z m 201 147 q 220 141 228 132 q 231 129 232 123 q 234 117 233 113 q 233 112 232 111 q 232 110 232 109 l 232 108 q 232 94 232 82 q 233 69 235 55 q 237 45 233 28 q 229 12 220 22 q 211 31 204 17 q 198 3 195 49 q 194 54 194 60 q 193 66 192 72 q 174 75 166 90 q 153 140 201 147 z"},"K":{"x_min":0,"x_max":435,"ha":435,"o":"m 181 610 q 181 627 186 646 q 192 666 194 685 q 197 704 193 720 q 189 737 171 749 q 161 754 152 752 q 143 751 134 748 q 125 745 116 742 q 106 739 96 742 q 85 743 72 744 q 60 744 49 741 q 38 738 30 730 q 21 723 19 710 q 2 666 2 618 q 3 570 13 525 q 15 521 20 518 q 26 514 31 514 l 34 514 l 34 -26 l 167 -26 l 167 182 l 254 -26 l 359 -26 q 361 -28 363 -30 q 365 -33 367 -35 l 389 -35 l 398 -26 l 401 -26 l 400 -23 q 407 -13 408 0 q 408 12 404 25 q 400 38 392 50 q 385 61 377 70 q 366 106 350 140 q 333 173 316 206 q 300 240 287 275 q 274 310 269 348 q 263 362 250 370 q 238 379 224 378 l 219 390 l 317 558 q 326 555 336 555 q 346 555 354 558 q 363 561 369 568 q 375 575 376 585 q 386 602 398 621 q 410 640 418 660 q 425 679 426 700 q 426 720 413 740 q 404 748 394 748 q 384 747 374 751 q 356 745 335 744 q 314 743 294 740 q 275 736 258 728 q 242 719 231 699 q 225 687 216 674 q 208 661 201 648 q 194 635 190 621 q 186 607 188 593 l 181 581 q 183 588 183 595 q 183 602 181 610 z m 68 541 q 61 530 49 530 q 37 531 27 537 q 13 559 15 586 q 17 614 18 640 q 21 652 24 666 q 26 681 32 694 q 37 707 47 714 q 57 722 74 719 q 83 709 92 702 q 100 708 109 714 q 118 719 128 722 q 137 726 146 726 q 156 725 165 718 q 168 716 172 712 q 175 707 175 703 q 177 672 176 642 q 175 611 170 581 q 167 568 155 565 q 155 555 152 548 q 150 540 144 536 q 139 532 134 532 q 132 518 132 504 q 131 491 133 477 q 134 466 128 460 q 122 455 114 455 q 107 455 100 460 q 94 464 93 475 q 91 491 92 506 q 92 522 94 539 q 83 535 76 543 q 74 544 72 546 q 71 544 68 541 z m 268 716 q 276 714 282 719 q 288 724 296 726 q 306 722 316 724 q 327 725 338 727 q 349 729 360 730 q 370 730 380 724 q 396 707 398 684 q 400 660 392 637 q 384 614 367 596 q 350 579 328 574 q 323 572 316 574 q 310 576 307 581 l 304 584 q 302 580 300 576 q 299 571 298 568 q 290 559 286 548 q 282 537 271 531 q 263 524 254 526 q 244 529 240 540 q 237 544 236 548 q 228 546 220 552 q 212 557 212 569 q 210 574 210 579 q 210 585 210 591 q 204 595 204 605 q 201 610 203 617 q 207 632 215 648 q 235 686 268 716 z m 190 333 q 190 345 198 350 q 206 355 214 353 q 221 356 229 355 q 231 354 233 354 q 235 354 237 353 q 243 351 248 346 q 252 340 252 334 q 261 296 278 256 q 295 217 314 176 q 334 136 353 95 q 372 54 385 13 q 389 -1 378 -9 q 366 -17 354 -8 q 345 2 340 14 q 334 26 329 39 q 324 52 317 64 q 310 76 299 85 q 281 94 274 112 q 268 131 266 150 q 266 168 260 184 q 253 199 244 214 q 235 229 225 244 q 215 258 209 273 q 203 276 200 285 q 197 297 193 308 q 189 320 190 333 z m 337 35 l 336 35 l 338 31 q 338 32 338 33 q 337 34 337 35 z m 89 701 q 87 701 87 699 q 87 699 89 701 z"},"R":{"x_min":0,"x_max":419,"ha":419,"o":"m 365 241 q 365 290 322 341 q 365 390 365 443 l 365 476 q 367 482 368 488 q 370 494 373 500 q 366 522 368 546 q 371 571 372 595 q 373 619 368 641 q 362 663 340 678 q 333 683 327 688 q 321 692 314 696 q 310 700 309 703 q 305 708 297 710 q 296 711 295 712 q 294 712 293 713 q 276 719 262 730 q 247 740 232 750 q 216 760 200 765 q 183 770 164 764 q 142 765 122 760 q 101 756 81 749 q 80 748 79 748 q 79 748 79 748 q 71 755 62 754 q 54 752 49 745 q 43 745 41 744 q 37 743 32 740 q 28 736 26 732 q 17 716 14 698 q 10 681 11 663 q 12 645 16 628 q 20 610 25 594 q 23 543 22 493 q 21 443 16 393 q 18 381 26 372 q 33 362 43 355 l 43 -26 l 176 -26 l 176 275 q 232 275 232 229 l 232 -26 l 365 -26 z m 40 701 q 52 721 70 726 q 88 732 108 732 q 129 733 149 734 q 169 735 186 746 q 203 751 213 739 q 223 727 231 715 q 231 713 232 711 q 233 709 233 709 q 235 707 236 707 q 237 706 240 706 q 253 695 268 687 q 284 679 299 670 q 314 661 327 650 q 340 638 347 622 q 356 619 359 608 q 362 583 364 555 q 366 527 350 506 q 341 496 330 499 q 324 487 322 473 q 320 459 318 446 q 316 432 312 420 q 307 408 295 399 q 284 390 271 397 q 269 398 268 398 q 268 399 266 400 q 262 402 258 408 q 255 413 255 418 q 255 455 254 492 q 253 529 248 565 q 234 557 221 546 q 208 534 193 528 q 185 523 178 524 q 170 525 163 529 q 157 518 154 505 q 152 492 151 479 q 150 466 148 454 q 147 441 142 429 q 140 424 137 421 q 134 344 134 268 q 134 257 128 252 q 121 247 113 247 q 106 247 100 252 q 94 257 94 268 q 94 295 94 323 q 94 351 95 379 q 91 380 83 380 q 80 376 77 373 q 74 370 71 367 q 65 361 57 361 q 49 361 43 367 q 37 371 34 377 q 32 383 31 390 q 23 398 26 409 q 29 429 33 448 q 37 468 40 488 q 38 542 36 596 q 34 649 40 701 z m 232 455 q 232 439 220 424 q 209 409 193 409 l 176 409 l 176 511 l 180 515 q 194 510 208 516 q 221 521 232 532 z m 324 501 q 324 501 324 501 q 324 502 323 502 q 323 501 323 501 q 324 501 324 501 z"},"T":{"x_min":0,"x_max":319,"ha":319,"o":"m 6 735 q 0 691 -2 647 q -4 603 4 559 q 5 555 9 550 q 13 546 17 544 q 24 540 31 540 q 45 540 56 550 q 66 561 71 569 q 78 573 89 578 l 95 578 l 95 -26 l 228 -26 l 228 572 q 236 563 244 557 q 253 551 264 551 l 269 551 l 268 553 q 268 553 270 551 q 272 549 274 548 q 277 547 279 545 q 285 539 293 539 q 302 539 308 546 q 317 553 320 560 q 323 568 323 577 q 323 609 323 628 q 323 647 323 657 q 323 667 324 670 q 324 674 324 677 q 324 686 325 696 q 326 706 324 717 q 321 728 318 722 q 315 717 315 718 q 301 730 215 734 q 129 738 108 741 q 86 744 75 745 q 64 746 60 746 q 56 747 54 747 l 41 746 q 35 753 25 753 q 18 753 12 748 q 7 744 6 735 z m 68 603 l 63 600 q 55 587 38 584 q 35 583 30 583 q 14 583 11 601 q 9 626 9 650 q 9 674 13 699 q 14 712 27 716 q 32 721 40 722 q 78 716 178 711 q 277 706 284 706 q 297 706 303 692 q 308 680 308 670 q 304 638 300 620 q 297 601 293 592 q 289 583 286 580 q 282 578 278 578 q 274 578 272 579 q 266 573 257 573 q 246 573 240 583 q 237 586 236 589 q 234 592 232 595 l 222 592 q 214 581 205 581 l 201 582 q 202 567 202 552 q 203 537 203 522 q 203 465 200 410 q 196 355 196 298 l 196 273 q 174 229 156 273 l 156 306 q 156 354 159 404 q 156 402 150 402 q 130 392 121 429 l 125 545 q 125 570 122 594 q 117 594 116 595 q 108 597 102 601 q 96 605 94 613 q 94 613 88 612 q 82 612 79 610 q 79 611 74 608 q 70 605 68 603 z m 274 553 l 270 551 q 270 551 274 553 z"},"P":{"x_min":0,"x_max":398,"ha":398,"o":"m 360 443 l 360 511 q 368 521 368 533 q 368 541 364 549 q 362 564 362 580 q 362 596 361 612 q 360 627 356 642 q 351 656 340 668 q 332 677 325 686 q 318 694 311 703 q 305 711 295 711 q 288 713 281 715 q 274 717 267 717 q 257 717 251 711 q 249 711 246 710 q 244 710 243 710 q 228 712 222 724 q 220 727 214 730 q 209 733 205 733 l 197 733 q 174 733 150 737 q 127 741 106 749 l 105 749 q 94 749 85 744 q 76 739 68 732 q 59 725 50 719 q 42 713 31 712 q 27 705 24 700 q 20 694 20 686 q 17 678 17 670 q 17 659 20 648 q 22 638 22 627 q 22 617 19 610 q 16 597 14 584 q 12 571 12 557 q 12 536 18 516 q 24 497 38 483 l 38 -26 l 171 -26 l 171 276 l 204 276 q 266 276 313 328 q 360 380 360 443 z m 62 475 q 58 481 58 488 q 59 496 57 503 q 52 509 46 514 q 43 516 40 521 q 36 526 35 529 q 33 538 32 548 q 31 557 31 566 l 31 577 q 33 585 36 590 q 39 596 41 603 q 41 610 40 614 q 34 624 34 641 q 34 657 42 672 q 49 688 66 692 q 67 698 71 705 q 76 713 83 717 q 90 721 98 721 q 102 721 110 719 q 115 723 120 724 q 126 725 132 725 q 148 725 164 718 q 181 711 196 710 q 214 687 243 687 l 246 687 q 263 692 277 692 q 289 692 300 688 q 310 683 316 669 q 338 658 345 636 q 352 613 352 588 q 352 580 352 572 q 351 565 350 557 q 350 543 336 536 q 332 528 326 522 q 320 516 313 510 l 313 507 q 312 492 309 478 q 306 464 292 456 q 285 451 279 451 q 268 451 262 461 q 254 470 252 481 q 251 492 251 503 q 251 511 251 518 q 251 526 250 534 q 244 534 238 538 q 232 542 230 548 q 225 552 223 554 q 210 555 198 564 l 196 564 q 185 564 176 570 q 166 576 160 584 q 152 571 152 551 l 152 542 q 139 534 135 522 q 131 509 130 496 q 128 482 126 468 q 124 454 114 443 q 112 439 107 436 q 102 433 97 433 l 88 433 q 82 433 76 438 q 71 442 69 448 q 67 453 66 458 q 65 463 64 469 q 62 473 62 475 z m 227 455 q 227 439 216 424 q 204 409 188 409 l 171 409 l 171 539 l 195 545 q 197 545 201 543 q 208 538 214 531 q 220 524 227 518 z m 65 686 l 64 685 l 65 681 z"},"t":{"x_min":0,"x_max":319,"ha":319,"o":""},"M":{"x_min":0,"x_max":542,"ha":542,"o":"m 486 -26 l 486 539 q 498 561 508 587 q 517 613 520 639 q 522 665 515 690 q 508 714 487 732 q 473 741 458 744 q 444 746 429 746 q 414 745 398 744 q 383 742 368 742 q 350 741 337 730 q 324 718 322 699 q 321 683 316 666 q 312 650 308 633 q 305 616 304 599 q 303 582 309 565 q 311 557 317 554 l 280 377 q 272 390 262 398 q 251 406 237 405 l 210 549 q 210 571 214 596 q 217 622 216 646 q 216 671 208 692 q 201 714 180 729 q 149 740 114 738 q 80 735 52 730 q 46 730 40 726 q 35 722 33 716 q 15 657 16 595 q 18 533 25 473 q 28 468 33 464 q 38 461 43 459 l 43 -26 l 176 -26 l 176 231 l 248 -26 l 281 -26 l 353 231 l 353 -26 z m 336 563 q 334 564 332 564 q 331 565 329 566 q 321 582 320 600 q 319 617 322 635 q 325 653 330 671 q 335 689 339 706 q 340 710 344 714 q 349 719 353 720 q 370 725 383 724 q 392 721 401 721 q 410 721 419 722 q 428 724 438 726 q 447 727 456 726 q 481 722 493 705 q 505 688 507 666 q 509 643 504 620 q 498 596 490 578 q 482 564 481 549 q 480 534 480 518 q 480 503 480 488 q 479 473 473 458 q 475 444 465 436 q 455 427 441 428 q 436 428 430 432 q 425 435 423 439 q 413 458 412 480 q 412 502 408 522 q 399 516 388 513 q 376 510 366 516 q 346 533 343 557 q 338 559 336 563 z m 85 480 q 88 470 84 464 q 79 457 72 454 q 65 452 58 455 q 50 458 47 468 q 28 522 32 578 q 36 635 45 690 q 56 713 81 716 q 106 718 128 714 q 159 719 176 705 q 193 691 200 668 q 208 645 208 617 q 208 590 205 569 q 197 549 198 528 q 200 507 189 489 q 181 477 168 480 q 155 482 152 496 q 148 508 148 520 q 147 532 147 545 q 144 540 140 536 q 137 533 133 529 l 133 496 q 133 485 126 480 q 120 475 112 475 q 105 475 99 480 q 93 485 93 496 l 93 512 q 92 512 92 512 q 91 513 90 513 q 89 508 88 503 q 87 498 85 493 q 83 489 82 488 q 84 482 85 480 z m 221 337 q 212 342 212 355 q 212 366 218 376 q 225 385 235 390 q 239 389 242 389 q 245 389 249 388 q 252 387 257 384 q 262 380 264 377 q 266 373 267 370 q 268 367 269 363 q 271 362 272 362 q 274 362 276 361 q 279 366 285 368 q 291 371 297 370 q 303 369 308 364 q 313 360 314 352 q 317 329 311 306 q 305 284 300 261 q 297 252 291 247 l 290 246 l 290 245 q 288 241 288 241 l 286 239 q 286 233 286 228 q 285 222 284 217 q 282 208 276 203 q 267 195 254 199 q 242 203 242 219 l 242 251 q 241 258 241 264 q 241 271 241 278 q 241 284 239 292 q 233 295 228 300 q 222 305 220 312 q 218 317 218 324 q 217 330 220 334 q 220 335 220 336 q 221 336 221 337 z m 378 672 q 378 673 378 673 q 379 673 379 674 q 378 673 378 672 q 378 672 378 672 z"},"g":{"x_min":0,"x_max":424,"ha":424,"o":""},"j":{"x_min":0,"x_max":421,"ha":421,"o":""},"i":{"x_min":0,"x_max":232,"ha":232,"o":""},"y":{"x_min":0,"x_max":417,"ha":417,"o":""},"@":{"x_min":0,"x_max":458,"ha":458,"o":"m 418 189 l 418 464 q 418 483 413 501 q 415 504 415 513 q 415 515 414 518 q 413 522 412 525 q 411 526 411 527 q 411 528 410 529 q 414 543 410 555 q 405 567 396 578 q 388 589 378 600 q 369 610 362 621 q 351 626 340 630 q 328 633 316 635 q 270 661 217 661 q 164 661 118 628 q 112 625 110 620 q 92 615 77 602 q 62 590 51 574 q 40 557 34 538 q 28 518 30 500 q 30 490 35 485 q 40 480 47 479 l 47 189 q 47 120 107 70 q 163 22 233 22 l 241 22 q 243 -3 258 -20 q 266 -30 276 -28 q 287 -27 292 -16 q 299 -2 301 11 q 303 24 307 38 q 335 50 360 71 q 418 121 418 189 z m 205 557 q 215 557 220 551 q 225 545 228 536 q 231 527 234 518 q 236 509 242 503 q 247 495 256 494 q 264 492 272 498 q 286 506 290 520 q 293 534 300 546 q 307 541 313 541 q 315 540 319 540 q 326 535 332 529 q 374 488 374 429 l 374 225 q 374 196 363 171 q 349 167 334 163 q 319 159 306 152 q 292 146 280 137 q 268 128 261 115 q 235 124 208 132 q 182 141 156 149 q 150 150 144 148 l 141 164 q 138 180 123 180 q 108 181 102 169 q 92 195 92 225 l 92 429 q 92 488 133 529 q 158 553 189 563 q 193 557 205 557 z m 324 256 l 298 256 l 298 401 q 302 403 305 408 q 308 413 308 420 q 309 433 304 443 q 298 453 289 460 q 280 468 268 472 q 257 477 247 480 q 239 477 231 478 q 223 479 216 480 q 208 482 200 482 q 192 482 184 477 q 172 472 162 462 q 152 452 148 440 q 143 427 144 414 q 146 400 157 390 q 165 379 175 380 q 185 382 190 390 q 200 388 204 386 q 208 416 229 416 q 247 416 247 398 l 247 385 q 247 377 232 365 q 230 367 229 367 q 228 367 226 368 q 204 372 187 362 q 170 353 158 336 q 146 320 141 300 q 136 279 138 260 q 138 256 142 251 q 145 246 149 244 q 156 238 169 238 q 173 232 179 226 q 200 206 229 206 q 254 206 279 242 q 287 207 302 207 q 324 207 324 232 z m 68 502 q 62 494 53 494 q 45 494 39 499 q 33 504 32 512 q 30 520 36 528 q 56 552 80 575 q 103 598 131 614 q 134 617 140 620 q 162 632 189 638 q 216 643 242 642 q 269 640 293 630 q 317 620 334 599 q 347 595 358 588 q 369 580 377 569 q 378 569 378 568 q 378 568 379 568 l 378 568 q 383 560 388 549 l 388 559 q 386 561 386 562 q 385 563 383 564 q 380 565 379 568 q 385 572 388 575 l 388 559 q 393 552 393 547 q 395 539 391 531 q 387 523 379 520 q 368 512 358 518 q 348 524 348 537 q 344 541 343 544 q 337 547 330 549 q 324 551 319 555 q 318 557 317 558 q 316 559 315 561 q 305 563 298 565 l 289 565 q 290 561 290 557 q 289 553 289 548 q 283 541 278 534 q 273 526 262 530 q 258 530 256 531 q 245 531 241 540 l 239 542 l 235 551 l 235 552 q 230 560 222 564 q 214 567 205 569 q 196 571 186 574 q 176 576 168 582 q 164 584 164 584 q 135 571 111 548 q 87 526 68 502 z m 99 148 q 99 158 105 164 q 111 169 118 169 q 126 169 132 164 q 139 158 139 148 l 139 145 q 142 140 146 136 q 149 132 151 127 q 162 123 170 129 q 178 134 186 132 q 194 131 199 123 q 206 110 218 110 q 228 112 236 108 q 244 103 250 95 q 255 96 259 97 q 263 98 268 100 q 282 121 304 134 q 327 147 353 149 q 357 151 360 151 q 368 152 372 146 q 377 141 378 134 q 379 127 376 120 q 374 113 367 111 q 365 110 360 110 q 347 101 332 90 q 316 80 299 71 l 299 62 q 297 50 294 38 q 292 27 291 15 q 291 4 284 -1 q 278 -6 270 -6 q 263 -6 257 -1 q 251 4 251 15 q 250 26 252 36 q 254 46 256 56 q 241 54 226 57 q 211 60 197 72 q 195 73 193 75 q 185 78 178 85 l 188 92 q 180 88 176 87 l 178 85 l 176 84 q 175 85 175 85 q 175 86 174 87 l 176 87 q 171 92 170 95 q 171 93 172 91 q 173 89 174 87 q 150 81 130 93 q 119 104 108 118 q 98 131 99 148 z m 192 415 q 192 404 186 399 q 179 394 171 394 q 164 394 158 399 q 152 404 152 415 q 150 425 154 433 q 158 441 165 448 q 173 457 182 460 q 192 462 202 462 q 212 462 222 462 q 232 462 242 466 q 246 467 252 466 q 258 464 261 461 q 271 459 281 456 q 291 452 296 442 q 302 433 300 426 q 297 418 290 414 q 284 409 276 410 q 268 411 262 419 q 250 420 238 428 l 241 425 q 230 420 218 421 q 205 422 194 421 q 194 420 193 420 q 193 420 193 420 l 192 418 z m 192 290 q 190 280 183 276 q 176 272 168 273 q 161 274 156 280 q 150 286 152 296 q 155 319 170 337 q 185 355 206 363 q 215 367 222 364 q 230 361 234 354 q 237 347 235 339 q 233 331 224 327 q 215 324 206 316 q 197 308 195 302 q 192 296 192 290 z m 198 230 q 189 236 188 244 q 188 252 192 258 q 196 265 204 268 q 211 270 220 264 q 225 260 232 261 q 238 262 244 261 q 254 261 260 254 q 265 248 265 240 q 265 233 260 227 q 254 221 244 221 q 232 219 220 222 q 209 225 198 230 z m 247 275 q 247 270 246 267 q 237 271 228 274 q 219 277 210 275 q 210 290 247 314 z m 354 535 l 357 533 q 354 536 353 538 q 353 536 354 535 z"},".":{"x_min":0,"x_max":178,"ha":178,"o":"m 159 49 q 159 55 158 61 q 172 75 175 96 q 178 117 162 133 q 142 154 116 158 q 91 161 68 152 q 44 142 27 121 q 10 100 8 72 q 6 60 7 47 q 8 34 16 24 q 18 21 24 18 q 29 16 32 16 l 33 16 q 38 5 46 -3 q 66 -26 95 -26 q 125 -26 143 -2 q 159 18 159 49 z m 57 31 l 53 29 q 44 24 36 28 q 27 32 25 42 q 20 55 22 66 q 24 78 30 88 q 36 99 44 109 q 51 119 57 129 q 59 132 64 135 q 70 138 74 138 q 85 138 96 140 q 106 141 117 137 q 128 139 140 131 q 153 123 158 112 q 163 102 160 93 q 158 84 152 78 q 145 72 136 70 q 126 67 116 69 q 107 73 103 70 q 99 67 98 60 q 96 53 96 44 q 97 36 97 29 q 97 18 90 13 q 84 8 76 8 q 69 8 63 13 q 57 18 57 29 z"},"p":{"x_min":0,"x_max":398,"ha":398,"o":""},"X":{"x_min":0,"x_max":458,"ha":458,"o":"m 217 601 q 215 600 213 598 l 202 636 q 208 642 210 650 q 213 659 208 668 q 206 677 206 685 q 206 694 208 703 q 193 730 166 738 q 139 746 118 748 q 97 749 83 748 q 69 746 55 742 q 54 741 53 740 q 52 740 51 739 q 43 747 31 744 q 19 741 17 727 q 12 707 16 689 q 19 671 25 653 q 31 635 38 617 q 45 599 47 580 q 60 562 81 565 l 150 343 l 36 -26 l 180 -26 l 222 122 l 265 -26 l 409 -26 l 295 343 l 345 505 q 361 503 371 517 q 382 520 385 530 q 388 540 386 566 q 383 592 388 616 q 392 641 400 658 q 408 675 414 689 q 420 703 414 717 q 413 722 408 726 q 404 731 399 732 q 297 743 285 737 q 274 748 260 739 q 244 731 238 716 q 233 701 230 685 q 216 671 220 654 q 225 637 239 627 l 233 605 q 224 607 217 601 z m 77 583 q 69 583 63 589 q 57 595 57 603 q 57 627 50 650 q 42 673 37 696 q 35 702 39 708 q 43 715 48 718 q 80 730 118 722 q 155 715 184 699 q 196 686 190 671 q 185 656 177 643 q 187 633 187 617 q 194 612 194 601 q 195 595 196 590 q 197 584 199 579 q 203 579 209 577 q 212 577 217 574 q 229 571 240 572 q 239 572 242 573 q 244 574 246 575 q 247 575 249 576 q 251 577 252 577 l 257 582 q 254 595 250 612 q 246 628 246 644 q 245 661 249 676 q 253 692 272 702 q 292 713 301 710 q 310 707 319 705 q 328 703 337 707 q 346 703 356 704 q 366 705 375 701 q 390 691 391 678 q 392 665 387 650 q 382 636 375 622 q 368 608 367 595 q 374 579 374 553 q 374 527 362 523 q 349 519 340 527 q 334 515 331 498 q 328 482 318 471 q 310 460 282 477 q 276 489 266 494 q 255 499 245 490 q 246 477 247 465 q 248 453 229 440 q 210 428 206 434 q 201 439 203 447 l 203 448 q 203 450 204 452 q 204 454 204 456 q 196 464 196 473 q 200 494 192 510 q 183 527 177 524 q 171 522 166 515 q 161 506 152 504 q 143 503 132 518 q 120 532 119 536 q 118 540 116 545 l 116 550 q 114 552 112 554 q 111 555 109 557 q 108 557 106 559 q 101 563 98 568 q 94 572 92 578 q 88 580 84 580 q 81 581 77 583 z m 107 559 q 107 559 106 560 q 106 560 106 561 l 106 559 z"},"*":{"x_min":0,"x_max":351,"ha":351,"o":"m 257 539 q 253 541 252 543 q 240 543 234 550 q 229 558 231 566 q 228 567 227 570 q 226 569 225 569 q 225 569 224 568 q 220 564 213 563 q 206 562 201 564 q 198 566 196 567 q 193 568 190 569 q 180 569 175 574 q 170 579 169 586 q 157 584 149 595 q 139 614 118 611 q 107 611 102 617 q 97 623 97 630 q 97 638 102 644 q 107 651 118 651 q 132 653 144 648 q 157 643 167 634 q 160 645 150 654 q 141 663 130 668 q 120 672 109 670 q 98 668 88 656 q 80 642 80 624 q 80 606 94 595 q 103 586 112 588 q 121 590 126 598 q 132 589 137 580 q 142 570 149 562 l 141 559 q 149 557 153 550 q 157 544 156 538 q 155 531 150 526 q 145 520 135 520 q 127 518 116 512 q 104 507 93 512 q 83 515 80 522 q 76 529 78 536 q 80 543 86 548 q 93 553 103 550 q 110 554 118 557 q 127 560 135 560 l 136 560 q 122 563 106 560 q 91 557 80 550 q 68 542 62 530 q 57 518 64 502 q 72 489 86 487 l 88 483 l 97 487 q 105 489 112 492 q 119 496 127 501 l 177 525 l 181 525 l 189 425 l 225 429 l 213 518 q 219 514 225 512 q 231 509 239 511 l 243 512 q 258 494 284 486 q 310 477 330 489 q 339 498 343 513 q 347 528 345 542 q 343 555 334 564 q 325 573 307 572 q 302 573 298 572 q 294 576 290 578 q 286 579 282 581 q 283 578 285 574 l 303 559 q 310 557 316 554 q 321 550 325 543 q 330 537 330 530 q 329 523 324 518 q 320 513 314 512 q 307 510 300 513 q 291 517 283 524 q 275 527 268 530 q 262 533 257 539 z m 280 688 l 279 689 l 279 688 q 278 688 278 688 q 278 689 277 689 l 279 689 q 276 691 270 692 q 263 693 259 691 q 230 682 216 658 q 201 633 188 609 l 193 609 q 194 612 199 617 q 213 632 227 648 q 241 665 263 671 q 270 674 278 672 q 288 677 297 671 q 306 665 306 654 q 308 647 305 642 q 302 636 300 630 q 298 624 292 620 q 286 615 279 616 l 273 616 q 276 611 277 604 q 278 598 280 592 q 294 599 302 613 q 310 627 310 642 q 311 658 304 671 q 297 684 280 688 z m 255 516 l 247 510 l 244 513 z"},"Y":{"x_min":0,"x_max":417,"ha":417,"o":"m 180 635 q 188 645 192 658 q 196 672 195 684 q 194 697 186 708 q 179 718 165 723 q 155 734 138 734 q 120 735 80 733 q 41 731 30 728 q 18 725 10 718 q 3 710 5 695 q 5 672 13 650 q 21 627 23 604 q 29 597 32 589 q 36 581 52 560 q 68 540 73 540 l 141 315 l 141 -26 l 274 -26 l 274 319 l 345 551 q 349 549 354 551 q 359 551 364 554 q 370 558 372 563 q 379 580 388 598 q 396 615 402 633 q 409 651 413 669 q 417 687 414 707 q 413 713 408 718 q 404 724 398 726 q 385 733 369 733 q 362 740 325 736 q 288 733 272 729 q 256 725 244 715 q 232 705 229 685 q 226 665 220 644 q 214 624 224 606 l 207 551 z m 20 694 l 20 695 q 18 704 24 713 q 29 722 42 720 q 140 720 169 704 q 171 692 178 682 q 184 672 181 659 q 178 636 160 628 q 161 620 162 613 q 163 606 161 598 q 159 589 152 584 q 146 580 138 581 q 140 567 144 554 q 147 541 148 527 q 148 512 135 508 q 122 503 113 514 q 105 519 103 527 q 101 535 103 543 l 99 546 q 98 548 96 551 q 68 567 56 577 q 46 584 41 594 q 36 603 38 614 q 36 618 34 622 q 31 625 28 628 q 30 637 28 645 q 26 653 24 661 q 21 669 19 677 q 17 685 20 694 z m 252 698 q 259 708 270 706 q 280 716 324 713 q 367 710 377 702 q 387 695 392 683 q 397 671 393 658 q 385 650 384 638 q 382 626 380 614 q 379 603 374 594 q 369 585 354 583 q 347 581 341 583 q 340 581 337 578 q 331 572 314 574 q 297 577 292 581 q 286 585 284 590 q 276 590 265 599 q 254 608 245 612 q 236 617 235 629 q 232 647 236 666 q 241 684 252 698 z"},"c":{"x_min":0,"x_max":414,"ha":414,"o":""},"!":{"x_min":0,"x_max":222,"ha":222,"o":"m 154 450 q 158 452 162 454 q 165 455 169 457 q 185 484 192 514 q 199 545 200 576 q 200 608 198 640 q 195 671 192 700 q 182 721 161 736 q 140 750 116 754 q 93 757 72 748 q 50 740 38 715 q 16 676 17 630 q 18 584 38 544 q 40 540 42 538 q 45 536 47 534 q 58 456 65 414 q 76 330 87 199 l 128 199 q 139 330 150 414 q 152 433 154 450 z m 48 701 q 53 715 66 715 q 73 726 86 730 q 100 735 114 734 q 128 734 142 728 q 155 721 163 711 q 169 683 174 652 q 178 621 178 590 q 178 560 172 530 q 165 500 149 473 q 135 464 121 470 q 116 454 102 448 q 93 443 85 447 q 77 451 74 461 q 69 478 68 496 q 66 515 66 533 q 35 568 34 614 q 33 660 48 701 z m 174 49 q 174 55 173 61 l 176 64 q 185 76 186 90 q 186 104 180 118 q 175 131 166 142 q 156 152 144 158 q 134 154 130 152 q 129 152 128 152 q 128 153 127 153 q 128 153 128 152 q 128 152 129 152 q 115 157 100 153 q 84 149 73 138 q 56 134 44 126 q 31 117 30 97 q 29 83 30 70 q 32 57 41 46 q 42 18 60 -3 q 80 -26 110 -26 q 139 -26 157 -2 q 174 18 174 49 z m 82 128 q 89 129 96 126 q 105 131 116 132 q 128 132 139 129 q 150 126 159 119 q 168 112 172 101 q 177 91 174 82 q 172 74 166 68 q 160 61 151 56 q 142 52 134 50 q 133 42 130 34 q 128 26 122 21 q 118 17 112 16 q 106 14 101 16 q 87 20 81 32 q 75 44 73 57 q 58 60 52 70 q 47 81 49 94 q 51 106 60 116 q 69 126 82 128 z m 131 49 l 130 49 z"},"/":{"x_min":0,"x_max":324,"ha":324,"o":"m 297 726 q 291 737 287 739 q 285 740 284 740 q 284 741 282 742 q 273 747 260 735 q 248 723 245 714 q 242 706 242 697 q 222 663 206 626 q 190 589 176 551 q 163 513 142 436 q 121 360 110 322 q 99 285 84 248 q 69 212 52 176 q 36 139 24 102 q 11 66 4 28 q -2 -9 4 -48 q 8 -62 41 -75 q 47 -75 57 -62 q 67 -48 68 -32 q 68 -16 66 0 l 290 682 q 299 694 297 726 z m 227 575 l 199 497 q 191 453 178 412 q 166 371 139 289 q 112 207 92 168 q 74 117 44 -43 q 42 -56 28 -36 q 13 -17 16 16 q 19 48 30 80 q 41 111 57 142 q 73 174 88 204 q 97 230 106 256 q 114 282 122 308 q 132 353 142 398 q 153 444 166 488 q 179 533 197 576 q 215 618 233 652 q 251 686 253 696 q 255 705 270 719 q 284 733 286 730 q 289 728 287 711 q 285 694 280 681 q 275 668 227 575 z"},"[":{"x_min":0,"x_max":201,"ha":201,"o":""},"6":{"x_min":0,"x_max":414,"ha":414,"o":"m 365 134 l 365 222 q 378 236 388 252 q 398 268 393 289 q 391 307 390 328 q 388 350 383 370 q 378 391 367 408 q 356 424 335 433 q 318 453 297 466 q 276 480 253 478 q 235 488 215 491 q 195 494 176 486 l 176 550 q 176 578 204 578 l 232 550 l 232 500 l 365 500 l 365 523 q 370 524 374 528 q 378 532 379 537 q 390 571 383 608 q 376 644 356 672 q 335 701 303 716 q 271 732 232 725 q 197 734 165 726 q 133 719 106 700 q 79 681 59 653 q 39 625 29 593 q 19 561 21 528 q 23 494 40 464 l 43 458 l 43 134 q 43 67 90 20 q 137 -26 204 -26 q 270 -26 318 20 q 365 67 365 134 z m 150 373 q 133 315 123 347 q 113 379 113 387 q 111 404 112 422 q 114 439 115 456 q 107 460 106 470 q 104 480 102 484 q 96 482 94 481 q 86 477 78 480 q 76 474 72 434 q 67 394 60 431 q 52 468 46 472 q 40 476 39 485 q 26 523 34 560 q 42 597 64 627 q 86 657 119 679 q 152 701 188 709 q 224 720 262 710 q 299 701 326 677 q 354 653 367 618 q 380 584 368 546 q 363 535 354 534 q 345 532 338 537 q 327 535 318 519 q 309 503 302 554 q 300 552 297 552 q 294 552 291 551 q 289 534 280 525 q 275 519 268 518 q 261 516 255 518 q 249 521 246 527 q 242 533 244 541 q 245 546 246 550 q 246 554 246 559 q 245 560 245 561 q 210 602 190 600 q 179 586 174 570 q 169 555 166 538 q 164 520 164 501 q 164 483 164 464 q 175 475 191 474 q 207 472 222 471 q 227 466 234 462 q 240 459 247 456 l 248 456 q 273 459 297 445 q 321 431 329 407 q 373 366 377 345 q 381 324 380 302 q 379 280 378 261 q 378 253 372 248 q 367 243 360 242 q 354 241 348 244 q 341 247 339 255 q 335 267 332 279 q 328 291 326 305 q 324 310 322 314 q 320 319 318 324 q 313 292 313 259 q 313 226 306 194 q 304 184 296 148 q 288 113 282 146 q 275 178 273 250 q 275 258 275 267 q 275 277 275 287 q 268 292 268 303 q 272 327 218 366 q 216 367 214 366 q 212 366 210 366 l 202 358 q 192 336 180 336 q 167 337 160 343 q 153 349 155 361 q 157 370 157 397 z m 232 294 l 232 131 q 220 141 205 143 q 190 145 176 136 l 176 289 q 176 322 204 322 q 232 322 232 294 z m 170 120 q 211 127 226 114 q 233 109 234 102 q 235 94 232 88 q 238 71 234 54 q 230 37 234 20 q 235 10 230 4 q 224 -2 216 -3 q 209 -4 202 0 q 195 4 194 14 q 192 23 192 32 q 193 41 194 50 q 178 56 175 70 q 164 70 170 120 z"},"r":{"x_min":0,"x_max":419,"ha":419,"o":""},"2":{"x_min":0,"x_max":419,"ha":419,"o":"m 23 543 q 24 538 25 534 q 26 529 28 525 q 27 517 26 510 q 26 502 29 494 q 32 480 44 477 q 55 474 64 485 q 64 485 66 487 l 74 487 q 79 487 84 490 q 90 494 92 498 q 94 501 98 504 q 101 508 103 510 l 176 510 l 176 553 q 181 578 204 578 q 232 578 232 550 q 232 507 183 431 q 137 361 92 291 q 43 205 43 134 l 43 -26 l 365 -26 l 365 12 q 381 23 388 44 q 394 64 391 86 q 388 107 376 124 q 363 142 340 146 q 321 137 300 138 q 279 138 258 140 q 236 143 216 145 q 195 147 176 142 q 180 183 225 252 q 270 323 316 394 l 323 407 q 346 412 362 428 q 378 444 383 468 q 397 515 396 566 q 395 617 368 659 q 362 669 354 678 q 346 687 335 694 q 333 696 332 697 q 330 698 328 699 q 323 706 320 713 q 311 720 300 724 q 289 727 281 735 q 275 730 269 731 q 263 732 258 735 q 252 738 246 740 q 241 743 234 742 q 216 747 197 747 q 179 747 161 742 q 143 737 128 727 q 112 717 101 701 q 70 685 51 655 q 30 633 22 604 q 13 574 23 543 z m 311 512 q 311 517 314 520 q 311 538 306 556 q 300 575 296 593 q 279 584 260 592 q 240 600 235 620 l 234 621 q 223 617 211 612 q 199 606 186 602 q 174 598 162 599 q 150 600 141 609 q 137 601 135 593 q 133 585 130 577 q 128 571 122 567 q 115 563 109 564 q 99 564 94 558 q 89 552 86 544 q 84 535 82 526 q 80 516 76 509 q 73 501 67 498 q 61 495 54 496 q 48 497 43 502 q 38 506 37 514 q 33 538 35 562 q 37 585 37 609 q 37 617 41 622 q 45 627 50 629 q 58 648 78 660 q 99 671 116 683 q 126 703 142 714 q 159 725 178 728 q 198 730 218 726 q 239 722 257 712 q 259 713 264 713 q 274 713 285 711 q 296 709 306 704 q 315 699 322 691 q 328 683 329 671 q 333 668 333 663 q 360 640 374 602 q 387 565 382 530 q 380 528 380 525 q 379 522 378 520 q 378 504 376 489 q 375 474 367 460 q 366 451 360 443 q 354 435 346 431 q 337 427 327 427 q 318 427 311 435 q 308 437 306 443 q 303 449 303 453 q 305 468 306 483 q 308 498 311 512 z m 158 116 q 162 130 173 132 q 184 134 191 126 q 208 129 226 128 q 244 128 261 126 q 271 118 284 116 q 286 117 288 118 q 289 119 291 120 q 303 125 317 127 q 331 129 345 126 q 353 126 361 120 q 366 117 368 112 q 369 108 369 103 q 381 89 382 68 q 384 48 371 34 q 369 31 364 28 q 358 26 355 26 q 344 26 334 31 q 325 36 321 46 q 316 46 312 46 q 309 45 304 44 q 290 42 280 50 q 270 58 259 66 q 258 66 258 65 q 258 65 257 65 q 249 58 250 42 q 250 26 244 14 q 241 4 232 0 q 223 -3 214 3 q 206 7 203 14 q 200 20 200 28 q 200 36 200 44 q 201 52 200 60 q 200 60 196 62 q 188 58 180 56 q 173 53 165 56 q 158 57 153 63 q 148 69 148 76 q 149 87 152 96 q 156 106 158 116 z"},"9":{"x_min":0,"x_max":414,"ha":414,"o":"m 34 180 q 30 168 28 154 q 27 139 28 124 q 30 110 36 97 q 41 84 52 77 q 64 46 90 20 q 137 -26 204 -26 q 270 -26 318 20 q 365 67 365 134 l 365 414 q 377 424 386 437 q 394 450 394 467 q 391 491 391 516 q 391 542 390 566 q 388 591 382 615 q 375 639 359 660 q 339 697 306 716 q 274 736 236 739 q 198 742 160 730 q 121 719 90 696 q 59 673 40 640 q 20 606 21 564 q 20 559 20 554 q 20 550 20 545 q 20 525 23 504 q 26 484 37 466 q 37 456 43 452 l 43 400 q 43 333 90 286 q 137 238 204 238 q 213 238 232 240 l 232 138 q 214 145 196 140 q 194 145 192 148 q 191 152 189 156 q 190 168 186 180 q 181 192 172 200 q 164 209 152 212 q 140 216 126 212 q 115 217 78 207 q 40 197 34 180 z m 81 485 q 83 475 78 468 q 73 462 66 460 q 58 459 50 463 q 43 467 41 477 q 27 529 41 580 q 38 585 40 592 q 42 603 46 613 q 51 623 57 631 q 80 670 122 692 q 163 714 208 716 q 253 718 294 698 q 335 679 359 635 q 362 611 368 587 q 375 563 380 539 q 384 515 384 491 q 385 467 376 443 q 371 429 360 428 q 348 427 341 435 q 339 427 338 416 q 338 406 338 399 q 338 391 332 386 q 326 382 318 382 q 311 382 304 386 q 298 390 298 398 l 298 399 q 296 409 297 416 q 272 412 265 413 q 258 414 252 419 q 247 424 247 432 l 247 437 q 248 460 248 482 q 247 504 249 527 l 249 529 q 246 551 239 572 q 232 593 227 615 q 225 614 224 613 q 223 612 221 611 q 214 596 198 595 q 183 594 170 589 q 157 584 151 584 q 151 573 152 562 q 152 552 150 543 q 155 526 154 508 q 154 491 152 474 q 151 456 150 438 q 148 421 151 403 q 152 395 147 390 q 142 384 135 382 q 128 381 121 384 q 114 387 112 395 q 111 395 111 397 q 105 412 104 427 q 103 442 103 457 q 103 472 104 487 q 104 502 102 517 q 89 506 75 518 q 76 501 81 485 z m 98 199 q 118 201 128 200 q 142 201 154 194 q 165 187 171 176 q 177 164 177 150 q 177 137 169 126 q 166 121 160 117 q 154 113 148 115 q 146 113 146 112 q 144 110 139 106 q 138 98 138 91 q 137 84 138 76 q 139 66 134 60 q 128 54 120 54 q 113 53 106 58 q 99 62 98 72 q 96 84 98 96 q 99 108 101 121 l 98 124 q 96 116 92 108 q 87 100 79 97 q 72 92 64 94 q 56 95 51 101 q 34 120 38 144 q 41 168 50 188 q 52 192 98 199 z m 176 550 q 176 578 204 578 q 232 578 232 550 l 232 407 q 203 418 176 406 z m 169 382 q 177 392 189 396 q 201 401 214 400 q 227 399 238 392 q 248 385 253 372 q 259 357 249 347 q 252 340 250 334 q 247 327 242 324 q 237 320 229 320 q 222 320 216 327 q 208 324 192 330 q 177 337 171 350 q 163 355 162 364 q 160 373 169 382 z"}," ":{"x_min":0,"x_max":201,"ha":201,"o":""},"I":{"x_min":0,"x_max":232,"ha":232,"o":"m 176 -26 l 176 423 q 191 452 196 484 q 202 516 202 549 q 203 582 202 616 q 201 649 204 681 q 203 690 202 700 q 202 711 200 720 q 197 730 192 738 q 187 745 154 756 q 144 756 134 752 q 123 749 112 746 q 101 742 90 744 q 51 740 48 737 q 40 739 32 736 q 24 732 22 721 q 10 661 10 600 q 11 539 20 502 q 29 464 34 462 l 43 459 l 43 -26 z m 23 543 q 31 651 36 703 q 37 707 40 712 q 44 717 47 719 q 58 726 72 724 q 86 722 104 724 q 122 726 132 730 q 141 733 151 734 q 161 736 171 733 q 176 732 181 727 q 186 722 187 717 q 192 703 192 688 q 191 673 193 658 q 190 634 190 610 q 189 587 189 563 q 189 540 188 516 q 186 493 180 470 q 177 456 153 443 q 129 430 122 431 q 122 392 112 382 q 101 373 91 382 q 81 391 76 414 q 72 437 84 463 q 79 463 74 466 q 69 470 67 476 q 57 474 23 543 z"},"H":{"x_min":0,"x_max":421,"ha":421,"o":"m 365 -26 l 365 539 q 369 541 372 546 q 375 551 375 558 q 374 580 380 606 q 385 632 387 657 q 389 682 382 704 q 374 725 348 738 q 329 742 308 742 q 287 743 268 738 q 249 733 234 720 q 219 708 213 686 q 205 649 206 610 q 208 571 216 536 q 222 532 225 529 q 227 526 232 524 l 232 441 q 205 455 176 447 l 176 559 q 187 577 187 599 q 187 622 195 642 q 197 665 200 690 q 202 715 187 735 q 184 740 178 743 q 171 746 166 745 q 157 742 148 744 q 138 745 129 748 q 120 750 111 750 q 102 751 93 746 q 64 738 48 717 q 31 696 24 670 q 18 643 22 615 q 26 587 38 564 q 39 559 43 556 l 43 -26 l 176 -26 l 176 276 l 232 276 l 232 -26 z m 39 587 q 36 606 37 628 q 38 650 44 670 q 51 689 64 704 q 78 720 99 727 q 102 729 108 728 q 114 727 117 725 q 129 725 140 722 q 152 718 163 713 q 178 703 182 690 q 185 676 183 662 q 181 647 176 632 q 172 617 170 571 q 170 566 167 562 q 166 554 164 546 q 162 539 153 537 q 146 532 138 534 q 130 535 125 541 q 114 550 111 565 l 103 565 q 103 523 104 482 q 104 440 96 409 q 89 378 81 378 q 74 378 68 384 q 62 389 62 400 q 64 442 64 484 q 63 527 63 570 q 55 568 48 572 q 41 576 39 587 z m 296 547 l 296 549 q 290 544 283 544 q 276 544 271 548 q 241 556 236 560 q 229 585 228 612 q 226 638 244 676 q 261 713 272 718 q 283 722 295 722 q 308 722 321 720 q 334 717 346 718 q 361 705 367 690 q 373 675 373 659 q 373 644 370 628 q 366 611 362 595 q 361 584 358 572 q 356 561 355 550 l 355 545 q 355 534 343 529 q 341 511 339 492 q 337 474 338 455 q 338 447 332 443 q 325 439 310 489 q 296 539 296 547 z m 192 347 q 172 348 163 363 q 154 378 154 395 q 155 412 166 426 q 176 441 195 442 q 200 443 206 440 q 212 438 215 434 q 216 433 227 430 q 238 428 244 426 q 257 398 257 398 q 257 393 259 391 q 260 380 259 342 q 258 305 244 299 q 232 294 224 302 q 215 310 218 323 q 218 328 219 334 q 220 339 221 344 q 213 348 210 351 q 205 349 201 349 q 197 349 192 347 z"},"4":{"x_min":0,"x_max":426,"ha":426,"o":"m 390 276 l 390 324 q 400 329 406 340 q 413 350 411 363 l 414 376 l 414 374 q 418 387 414 402 q 411 417 402 428 q 394 440 381 444 q 368 449 354 443 l 354 600 q 362 618 368 636 q 374 655 375 673 q 376 691 371 708 q 366 725 351 739 q 329 754 301 754 q 273 754 250 742 q 226 730 212 708 q 199 686 207 656 q 208 641 210 626 q 211 612 216 598 q 216 585 215 572 q 214 560 217 547 q 217 541 221 537 l 221 445 q 201 449 180 438 q 176 439 172 439 q 169 439 165 440 l 165 561 q 170 568 172 576 q 175 583 180 590 q 180 609 184 633 q 188 657 188 679 q 188 701 179 720 q 170 738 145 747 q 136 748 129 747 q 121 751 113 753 q 105 755 100 759 q 89 756 78 752 q 67 747 59 740 q 48 738 38 732 q 28 727 21 717 q 20 694 15 668 q 10 642 8 617 q 5 592 9 568 q 13 545 31 527 l 31 526 l 32 526 l 32 276 l 221 276 l 221 -26 l 354 -26 l 354 276 z m 43 718 q 51 728 61 726 l 64 726 q 72 730 80 732 q 88 735 96 738 q 96 738 96 737 q 96 737 97 737 q 107 743 122 742 q 129 731 140 730 q 151 728 162 723 q 166 721 169 716 q 172 711 173 707 q 181 662 165 623 q 163 615 159 608 q 158 606 157 605 q 150 592 140 592 q 144 551 144 510 q 143 470 143 429 q 143 418 136 413 q 130 408 122 408 q 115 408 109 413 q 103 418 103 429 l 103 476 q 96 471 88 474 q 81 476 76 485 q 70 494 68 503 q 67 512 68 522 q 69 531 70 541 q 70 551 69 560 q 60 549 53 547 q 44 542 36 546 q 27 550 25 560 q 19 574 20 589 q 20 604 19 618 q 25 630 26 643 l 28 669 q 29 682 32 694 q 34 707 43 718 z m 227 708 q 229 718 235 722 q 241 726 248 725 q 255 734 264 736 q 274 738 284 737 q 294 736 304 735 q 315 734 324 736 q 346 724 354 704 q 362 684 360 662 q 358 641 348 620 q 337 600 322 586 l 322 584 q 319 574 313 571 l 313 473 q 313 462 306 457 q 300 452 292 452 q 285 452 279 457 q 273 462 273 473 l 273 547 q 264 544 255 548 q 246 553 246 567 l 246 603 q 244 604 243 605 q 226 625 226 654 q 225 682 227 708 z m 342 367 q 342 372 344 378 q 342 382 342 386 q 338 392 340 403 q 341 404 341 405 q 341 406 342 408 q 345 422 359 424 q 364 427 370 426 q 376 426 380 423 l 383 420 q 400 410 400 390 q 402 378 398 366 q 394 354 384 346 l 381 343 q 381 335 380 328 q 380 321 380 313 q 380 302 374 297 q 367 292 359 292 q 352 292 346 297 q 340 302 340 313 q 339 327 341 340 q 343 353 342 367 z m 165 405 q 175 420 192 426 q 210 431 226 422 q 237 416 237 403 q 237 391 227 386 l 227 360 q 227 348 225 335 q 223 325 216 321 q 209 317 202 318 q 194 319 188 325 q 183 331 185 341 q 186 346 186 351 l 186 361 q 179 362 174 372 q 165 374 160 384 q 156 394 165 405 z"},"D":{"x_min":0,"x_max":414,"ha":414,"o":"m 365 134 l 365 511 q 374 516 375 525 q 377 537 378 550 q 379 562 379 576 q 379 616 367 654 q 355 693 325 719 l 251 736 q 242 736 234 736 q 225 735 210 738 q 196 740 178 742 q 160 745 130 745 q 125 745 110 748 q 96 750 88 750 l 82 750 q 73 750 53 746 q 33 741 28 736 q 22 731 22 721 q 21 710 20 699 q 20 688 19 668 q 18 648 18 620 q 22 553 25 536 q 26 528 31 524 q 36 521 43 521 l 43 -26 l 214 -26 q 280 -26 322 20 q 365 67 365 134 z m 30 556 q 32 595 36 634 q 39 674 44 713 q 45 719 62 730 q 68 732 85 733 q 102 734 124 733 q 146 732 169 732 l 221 724 q 234 725 246 728 q 259 730 298 715 q 336 700 350 660 q 364 620 364 578 q 364 561 362 546 q 360 530 357 515 q 353 499 337 499 l 332 499 q 330 474 330 449 q 329 424 328 398 q 328 387 314 382 q 300 378 294 383 q 288 388 278 454 q 275 466 275 480 q 267 476 262 476 q 254 476 242 509 q 242 522 243 535 q 244 548 247 561 l 247 604 q 240 609 234 614 q 228 618 222 623 q 219 613 215 608 q 209 599 198 599 q 190 599 184 604 q 178 610 178 619 l 178 622 q 178 624 178 626 q 179 627 179 629 q 176 621 172 616 q 170 563 166 511 q 163 459 156 407 q 154 397 148 393 q 142 389 135 389 q 127 389 115 408 l 115 411 q 115 414 116 417 q 116 420 117 424 l 113 424 q 106 424 100 428 q 95 431 94 439 q 92 457 90 476 q 88 494 86 513 q 77 513 70 520 q 65 522 60 526 q 56 529 56 535 q 54 534 49 534 q 41 534 36 540 q 30 545 30 554 z m 176 578 l 204 578 q 232 578 232 550 l 232 148 q 221 162 204 162 q 191 162 180 152 q 178 151 176 149 z m 171 130 q 182 143 201 143 q 209 143 216 139 q 224 135 228 127 q 234 121 232 37 q 232 26 226 21 q 220 16 212 16 q 204 16 198 21 q 192 26 192 37 l 192 77 q 186 79 182 84 q 177 88 175 93 q 161 123 171 130 z"},"^":{"x_min":0,"x_max":366,"ha":366,"o":"m 328 453 l 179 602 l 31 453 l 31 562 l 179 711 l 328 562 z"},"0":{"x_min":0,"x_max":414,"ha":414,"o":"m 365 134 l 365 421 q 367 423 368 425 q 368 427 370 429 q 382 455 384 483 q 387 511 384 540 q 380 568 372 596 q 365 624 358 650 q 350 657 341 662 q 332 666 330 677 q 325 688 317 698 q 309 707 303 718 q 301 722 296 725 q 290 728 286 728 q 264 732 240 738 q 216 743 192 744 q 169 745 147 738 q 125 732 106 713 q 70 693 50 661 q 30 629 22 592 q 13 555 15 516 q 17 476 26 442 l 25 427 q 24 416 30 410 q 35 405 43 405 l 43 134 q 43 67 90 20 q 137 -26 204 -26 q 270 -26 318 20 q 365 67 365 134 z m 39 610 q 39 622 48 627 q 51 637 59 646 q 67 655 76 662 q 86 670 96 677 q 107 684 116 690 q 134 698 150 710 q 165 721 182 731 q 192 728 203 727 q 214 726 224 725 q 235 724 246 722 q 256 719 265 712 q 272 702 282 694 q 292 687 302 680 q 311 672 318 662 q 326 653 327 640 q 345 626 352 604 q 359 581 361 559 q 364 541 365 520 q 366 498 362 478 q 357 459 345 444 q 333 428 311 422 q 305 420 298 423 q 291 426 288 432 q 282 439 282 449 q 277 449 272 452 q 267 456 265 461 q 257 473 256 486 q 255 499 253 513 q 253 508 252 511 q 252 514 251 516 q 237 521 236 533 q 235 545 233 557 q 225 546 212 540 q 199 533 185 544 q 181 546 178 550 q 174 555 173 559 q 173 559 172 560 q 172 561 172 562 q 159 561 152 554 q 145 546 138 537 q 133 486 134 436 q 135 387 138 336 q 138 325 132 320 q 126 314 118 314 q 111 314 104 318 q 98 323 98 334 q 96 366 94 397 q 93 428 94 460 q 89 445 76 435 q 68 427 58 430 q 47 432 43 443 q 35 463 34 484 q 32 505 33 526 q 34 547 36 568 q 39 589 39 610 z m 176 503 q 181 515 183 531 q 185 531 186 530 q 187 530 189 530 l 189 525 q 189 517 194 512 q 200 508 208 507 q 215 506 221 510 q 227 514 229 522 q 230 526 230 532 q 231 538 232 544 l 232 157 q 230 161 224 164 q 219 168 214 168 q 200 170 191 164 q 182 159 176 150 z m 232 152 q 233 151 234 150 q 235 150 236 149 q 247 149 254 140 q 261 131 255 119 q 253 117 248 110 q 244 102 239 97 l 238 96 q 239 84 240 72 q 240 61 239 49 q 239 38 232 33 q 226 28 218 28 q 211 28 205 33 q 199 38 199 49 q 199 58 199 67 q 199 76 198 85 q 196 85 195 84 q 194 84 192 84 q 185 82 178 86 q 171 89 168 96 q 162 109 166 123 q 171 137 182 146 q 192 156 206 158 q 220 161 232 152 z"},"F":{"x_min":0,"x_max":349,"ha":349,"o":"m 166 578 l 293 578 l 293 572 q 292 564 296 559 q 300 554 306 552 q 312 549 318 550 q 324 552 329 558 q 342 566 348 580 q 355 594 351 609 q 352 622 356 636 q 360 649 363 662 q 366 676 366 689 q 366 703 360 717 q 358 722 352 726 q 347 730 342 730 q 268 735 194 739 q 121 743 46 737 q 42 737 36 734 q 31 730 29 726 q 6 685 5 638 q 4 591 16 547 q 19 534 33 532 l 33 -26 l 166 -26 l 166 276 l 252 276 l 252 320 q 265 327 272 340 q 278 352 280 367 q 283 382 280 398 q 278 414 273 426 q 272 429 268 434 q 263 438 260 439 q 237 447 213 448 q 189 450 166 448 z m 60 568 q 61 558 56 552 q 50 546 42 545 q 35 544 28 548 q 21 552 20 562 q 13 599 18 638 q 23 676 44 708 q 46 712 52 715 q 57 718 61 718 q 94 717 128 718 q 162 720 196 721 q 229 722 262 720 q 296 719 329 711 q 335 710 340 704 q 344 699 345 693 q 347 667 346 640 q 346 614 338 588 q 336 580 331 576 q 326 572 320 572 q 313 571 308 574 q 302 578 299 585 q 292 598 292 612 q 292 627 286 641 q 278 635 270 630 q 261 624 252 620 q 232 607 212 613 q 193 619 179 634 q 177 632 174 630 q 172 628 170 626 q 163 621 156 621 q 156 588 155 554 q 154 521 155 489 q 155 479 149 474 q 143 468 136 468 q 129 467 122 472 q 116 476 115 485 q 108 481 100 484 q 92 486 88 495 q 76 515 78 537 q 79 559 81 581 q 75 579 68 580 q 62 580 57 585 q 58 580 58 576 q 59 572 60 568 z m 143 370 q 140 373 138 379 q 136 385 138 389 q 139 391 139 392 q 139 394 140 396 q 142 399 145 403 q 148 407 152 409 q 152 415 156 420 q 160 426 168 428 q 188 434 209 432 q 230 430 250 427 q 254 426 258 422 q 263 419 265 416 q 276 406 276 394 q 276 383 271 372 q 271 368 267 364 q 263 358 258 354 q 254 349 249 345 q 252 337 248 331 q 245 325 243 318 q 239 304 226 302 q 213 301 206 314 q 201 320 200 326 q 191 323 182 328 q 172 332 172 346 l 169 358 q 161 358 154 360 q 148 363 143 370 z"},"`":{"x_min":0,"x_max":305,"ha":305,"o":"m 219 756 l 212 778 q 213 778 213 780 q 213 781 213 781 q 214 781 214 782 l 214 787 q 216 787 217 788 q 225 790 216 807 q 205 806 196 810 q 186 813 166 818 q 147 823 137 818 q 131 816 131 809 q 129 799 140 784 q 152 768 158 768 q 164 767 185 756 z m 150 807 q 154 811 158 811 q 169 807 180 806 q 192 804 203 801 q 205 799 206 796 q 207 793 209 791 q 214 786 212 780 q 209 774 186 778 q 164 781 158 782 q 151 782 146 787 q 138 789 139 798 q 140 807 148 807 z"},"k":{"x_min":0,"x_max":435,"ha":435,"o":""},"u":{"x_min":0,"x_max":421,"ha":421,"o":""},"]":{"x_min":0,"x_max":201,"ha":201,"o":""},"U":{"x_min":0,"x_max":421,"ha":421,"o":"m 176 398 l 177 399 q 183 404 184 412 q 186 419 188 426 l 195 433 q 194 451 191 470 q 188 488 186 506 q 184 525 184 543 q 184 561 189 579 q 190 583 189 588 q 195 603 196 619 q 196 635 196 650 q 196 666 197 682 q 198 698 204 713 l 198 730 q 173 744 144 744 q 116 745 88 741 q 81 743 75 749 q 71 749 68 750 q 65 750 61 750 q 33 738 15 715 q 16 695 14 676 q 13 656 12 636 q 10 616 10 596 q 10 577 15 557 q 17 548 23 543 q 24 526 24 510 q 23 494 22 478 q 25 460 24 442 q 24 423 19 406 q 25 394 28 380 q 30 366 43 358 l 43 134 q 43 67 90 20 q 137 -26 204 -26 q 270 -26 318 20 q 365 67 365 134 l 365 388 q 375 396 376 407 q 387 423 388 440 q 389 458 388 476 q 386 494 386 512 q 385 530 391 547 q 391 556 394 564 q 396 573 398 582 q 399 591 398 600 q 396 608 390 616 q 387 632 388 652 q 388 671 385 688 q 382 706 374 720 q 365 735 345 742 q 334 741 324 744 q 313 746 302 739 q 293 740 278 740 q 264 739 250 735 q 237 731 226 722 q 216 714 214 698 q 211 683 211 667 q 211 652 211 636 q 211 620 224 615 q 226 607 228 600 q 230 593 232 585 l 232 564 q 229 557 232 551 l 232 161 q 205 166 182 148 l 176 154 z m 30 590 q 25 593 22 600 q 19 606 21 614 q 25 629 24 644 q 23 659 26 674 q 26 687 32 695 q 39 703 48 708 q 58 712 69 714 q 80 715 90 716 q 95 722 102 723 q 108 724 114 724 q 121 723 128 722 q 135 722 141 726 q 146 721 154 720 q 162 719 165 715 q 172 715 178 710 q 184 705 185 698 q 186 693 186 688 q 186 683 186 678 q 175 652 173 625 q 171 598 172 571 q 173 544 174 516 q 176 489 172 462 q 176 443 169 427 q 162 411 151 397 q 146 368 140 334 q 135 301 136 269 q 138 264 136 257 q 133 250 128 247 q 126 245 124 244 q 121 244 119 242 q 109 237 100 242 q 92 246 90 257 q 87 270 88 283 q 88 296 90 309 q 91 322 92 335 q 92 348 89 361 q 61 379 54 406 q 46 433 46 464 q 45 494 44 524 q 42 555 27 580 q 28 582 28 585 q 29 588 30 590 z m 240 701 q 243 713 252 716 q 269 731 291 727 q 313 730 330 720 q 348 711 358 695 q 369 679 372 658 q 376 638 372 619 q 365 611 366 602 q 366 592 377 588 q 383 583 384 575 q 386 567 382 561 q 371 545 368 526 q 364 507 363 488 q 363 482 358 476 q 354 471 348 469 l 345 468 q 344 468 344 467 q 344 467 343 467 q 344 407 341 349 q 338 291 337 231 q 337 220 330 215 q 324 210 316 210 q 309 210 303 215 q 297 220 297 231 q 297 268 298 305 q 300 342 302 379 q 294 371 282 374 q 269 377 268 391 q 266 418 267 446 q 268 473 268 500 q 269 528 268 556 q 268 583 264 610 q 249 615 243 626 q 237 638 235 652 q 227 678 240 701 z m 212 144 q 220 147 226 144 q 233 140 236 135 q 245 128 248 116 q 252 103 247 92 q 247 82 242 76 q 236 71 228 70 q 221 70 214 74 q 208 78 207 87 q 201 84 196 84 q 190 85 186 89 q 181 93 179 99 q 177 105 179 112 q 182 124 192 132 q 201 140 212 144 z m 95 273 l 94 273 l 95 271 z"},"o":{"x_min":0,"x_max":414,"ha":414,"o":""},"N":{"x_min":0,"x_max":421,"ha":421,"o":"m 365 -26 l 365 547 q 376 560 380 581 q 383 602 388 618 q 389 634 392 651 q 396 668 397 685 q 398 702 392 717 q 387 732 370 743 q 367 745 362 746 q 356 747 353 746 q 339 742 325 744 q 311 745 297 748 q 283 750 268 752 q 254 753 240 749 q 219 720 218 685 q 216 650 221 617 q 221 608 232 603 l 232 522 q 230 524 229 526 q 222 537 210 537 l 187 617 q 189 650 187 682 q 185 714 162 738 q 141 749 112 750 q 84 752 60 743 q 35 734 19 714 q 3 695 6 665 q 10 648 10 627 q 9 606 10 586 q 10 567 16 550 q 23 533 43 524 l 43 -26 l 176 -26 l 176 204 l 248 -26 z m 141 570 q 140 570 140 572 q 137 576 134 580 q 132 584 130 589 q 129 577 128 564 q 128 552 123 540 q 121 532 114 529 q 107 526 100 528 q 94 529 88 534 q 83 539 84 547 l 84 559 l 83 559 q 82 550 71 545 q 70 545 67 542 q 60 537 52 538 q 43 538 38 545 q 37 546 36 546 q 35 547 34 548 q 30 550 27 555 q 24 560 24 565 q 18 589 20 614 q 23 638 22 663 q 19 684 29 700 q 39 715 56 724 q 74 734 94 736 q 115 738 132 732 q 150 729 159 718 q 168 708 172 693 q 175 678 176 662 q 177 645 180 632 q 181 618 186 601 q 190 584 184 572 q 187 564 189 556 q 191 548 193 540 q 195 537 197 533 q 197 530 198 529 q 213 522 226 508 q 240 495 248 478 q 255 462 255 443 q 255 425 245 408 q 239 396 226 396 q 214 397 209 409 q 197 435 183 460 q 169 486 161 514 q 155 528 150 542 q 146 557 141 570 z m 269 609 q 251 609 242 618 q 233 628 230 642 q 227 655 228 670 q 229 686 232 698 q 231 710 237 720 q 243 729 253 734 q 263 738 274 738 q 286 737 295 730 q 301 734 306 730 q 310 727 315 725 l 314 725 q 322 722 330 722 q 339 721 347 721 q 355 721 363 719 q 371 717 378 711 q 383 693 382 676 q 381 658 378 640 q 375 622 372 604 q 368 586 367 568 q 363 566 360 563 q 356 560 352 558 q 347 554 340 554 q 333 554 328 558 q 322 561 319 566 q 316 571 313 576 q 313 559 314 544 q 314 528 314 511 q 314 500 308 495 q 301 490 293 490 q 286 490 280 495 q 274 500 274 511 q 273 535 273 559 q 273 584 273 608 q 270 608 269 609 z m 234 448 l 228 463 l 227 462 q 230 458 234 448 z m 272 695 l 272 694 l 273 695 z"},"+":{"x_min":0,"x_max":337,"ha":337,"o":"m 317 276 l 317 308 q 339 322 344 350 q 348 378 345 402 q 344 410 338 415 q 333 420 325 420 l 322 420 q 321 422 320 424 q 318 427 316 430 q 312 435 306 438 q 299 440 293 438 q 286 436 269 469 q 277 481 274 500 q 272 518 265 531 q 263 534 258 538 q 253 541 250 542 q 244 545 239 544 q 234 544 228 543 q 223 542 218 540 q 212 539 206 540 q 199 526 188 524 q 178 521 166 522 q 154 524 142 526 q 129 528 118 523 q 103 517 96 506 q 89 496 86 484 q 84 471 84 456 q 83 442 82 429 q 71 431 60 430 q 49 429 40 425 q 32 431 20 428 q 9 425 7 411 q 5 397 4 365 q 2 333 7 320 q 12 306 26 298 q 32 295 41 299 l 41 276 l 111 276 l 111 198 l 244 198 l 244 276 z m 83 335 q 75 329 63 325 q 51 321 40 318 q 28 314 19 326 q 10 337 10 352 q 16 396 30 403 q 43 410 58 408 q 65 413 75 412 q 89 409 102 413 q 102 423 102 438 q 103 452 106 467 q 109 482 117 494 q 125 507 141 512 q 161 509 171 493 q 179 493 183 494 q 185 496 187 498 q 189 500 191 502 q 194 517 206 524 q 218 531 231 530 q 244 528 254 519 q 264 510 259 467 q 254 424 253 416 q 261 414 270 412 q 278 411 300 410 q 322 410 326 400 q 340 380 333 360 q 326 340 316 321 q 311 313 304 312 q 297 310 281 314 q 265 317 263 327 q 260 319 254 316 q 248 313 242 314 q 235 314 230 320 q 224 325 224 334 q 224 343 223 352 q 222 361 222 370 q 216 372 213 377 q 213 363 213 350 q 213 337 215 323 q 216 306 203 302 q 190 298 181 306 q 183 281 187 259 q 189 249 184 243 q 178 237 170 236 q 163 235 156 239 q 149 243 147 253 q 135 325 131 338 q 127 352 83 335 z m 259 420 l 259 419 q 259 419 258 419 q 258 419 258 420 z"},"G":{"x_min":0,"x_max":424,"ha":424,"o":"m 168 550 q 168 578 196 578 q 224 578 224 550 l 224 500 l 320 500 q 330 485 345 482 q 364 475 371 494 q 385 533 381 576 q 377 620 356 655 q 346 664 336 674 q 327 683 325 697 q 318 700 311 701 q 304 702 297 705 q 294 709 288 712 q 282 714 277 713 q 275 713 274 712 q 274 712 273 712 q 264 713 256 716 q 248 720 240 723 q 233 726 224 728 q 216 730 207 728 q 170 737 139 728 q 108 720 83 700 q 58 680 41 650 q 24 621 15 588 q 6 554 6 520 q 7 486 19 456 l 24 410 q 25 398 35 393 l 35 134 q 35 66 72 21 q 111 -26 177 -26 q 201 -26 229 -17 q 265 -4 265 14 l 268 16 q 273 -20 287 -26 l 371 -26 q 357 6 357 36 l 357 276 l 369 276 q 370 274 370 273 q 370 272 371 271 q 375 257 388 256 q 401 254 408 267 q 414 276 414 286 q 415 297 414 308 q 413 318 412 328 q 412 339 416 349 q 417 366 418 384 q 418 403 407 418 q 405 422 400 426 q 394 429 389 429 q 365 429 338 434 q 311 439 285 439 q 259 439 236 430 q 214 421 199 395 q 197 377 201 358 q 205 340 213 324 q 216 310 218 296 q 219 283 224 270 l 224 147 q 211 154 196 157 q 182 160 171 157 q 170 156 168 156 z m 52 416 q 52 416 51 416 q 51 416 50 417 q 42 421 42 429 l 42 431 q 40 437 42 444 l 42 462 q 33 465 32 474 q 30 482 28 491 q 27 500 27 509 q 15 550 27 590 q 39 630 66 660 q 93 690 132 706 q 170 722 212 716 q 235 714 254 701 q 272 688 294 682 q 295 681 296 680 q 298 678 295 679 l 307 675 q 307 673 308 672 q 310 671 310 670 q 320 668 328 662 q 336 656 343 649 q 347 633 353 617 q 359 601 364 584 q 368 568 370 552 q 371 535 368 518 q 365 504 350 503 q 336 502 330 512 q 320 519 315 528 q 310 537 307 548 q 305 540 298 536 q 291 533 283 536 q 268 539 263 548 q 258 557 256 569 q 255 581 254 594 q 254 606 249 615 l 249 616 l 248 616 q 238 614 231 618 q 224 621 218 627 q 215 617 207 609 q 198 599 186 601 q 175 603 167 612 q 160 599 158 586 q 155 572 154 558 q 154 544 154 530 q 155 515 154 502 q 147 491 146 478 q 145 465 144 452 q 143 439 140 427 q 137 415 127 406 q 120 399 111 399 q 110 378 110 357 q 111 336 111 315 q 111 304 104 299 q 98 294 90 294 q 83 294 77 299 q 71 304 71 315 q 71 338 70 362 q 70 385 71 408 q 59 406 52 416 z m 217 395 q 217 403 221 408 q 225 413 230 415 q 236 417 242 416 q 248 414 252 409 q 265 419 282 422 q 298 424 314 422 q 339 427 359 417 q 379 407 391 388 q 403 370 406 347 q 408 324 399 303 q 397 295 390 292 q 384 289 377 290 q 370 290 365 295 q 360 300 360 308 q 359 312 359 321 q 357 322 355 327 l 351 327 q 350 312 348 296 q 347 281 348 267 q 348 258 344 253 q 339 248 333 246 q 327 245 320 247 q 314 249 311 255 q 313 230 314 206 q 314 181 313 157 q 313 146 306 142 q 300 137 292 137 q 285 137 279 142 q 273 148 273 159 q 274 186 273 212 q 272 239 270 266 q 263 256 250 258 q 238 260 235 273 q 230 289 230 306 q 231 322 232 339 q 229 340 228 343 q 217 352 216 367 q 215 382 217 395 z m 165 102 q 160 106 158 112 q 156 118 158 124 q 159 130 164 134 q 169 139 178 139 q 193 141 207 135 q 221 129 232 119 q 240 112 240 102 q 239 93 230 87 q 222 81 218 80 q 218 69 218 59 q 217 49 218 39 q 218 28 212 23 q 205 18 197 18 q 190 18 184 23 q 178 28 178 39 q 177 45 178 52 q 178 58 178 65 q 171 72 167 81 q 163 90 165 101 z m 258 612 l 258 613 q 258 614 258 614 q 257 615 257 616 l 253 616 z"},"q":{"x_min":0,"x_max":421,"ha":421,"o":""},"d":{"x_min":0,"x_max":414,"ha":414,"o":""},"1":{"x_min":0,"x_max":306,"ha":306,"o":"m 251 -26 l 251 536 q 274 580 277 632 q 280 683 266 729 q 256 740 244 742 q 232 745 220 743 q 207 741 194 738 q 182 735 170 735 l 159 747 q 141 752 126 744 q 112 736 102 723 q 91 715 80 708 q 68 702 59 693 q 49 690 43 682 q 36 678 33 670 q 22 645 22 618 q 21 591 29 565 q 31 559 36 554 q 42 549 49 549 q 53 548 63 550 l 63 529 l 118 529 l 118 -26 z m 34 647 q 36 658 44 662 q 51 665 59 663 q 63 668 67 674 q 71 680 76 685 q 89 687 97 695 q 103 704 114 712 q 124 719 136 723 q 147 727 158 725 q 169 723 176 712 q 192 719 208 726 q 224 733 242 728 q 254 726 258 713 q 263 695 263 677 q 263 660 260 642 q 256 624 250 606 q 245 589 239 573 q 219 558 214 538 q 208 518 208 495 q 208 473 208 450 q 209 428 201 408 q 198 397 188 395 q 188 359 188 324 q 187 288 185 253 q 184 242 178 238 q 171 233 163 233 q 156 233 150 238 q 144 244 145 255 q 150 325 148 394 q 145 464 147 535 q 146 543 146 551 q 146 560 145 569 q 144 568 142 568 q 134 566 126 570 q 119 573 117 581 q 116 583 116 584 q 115 586 114 588 q 106 588 99 593 q 96 585 94 578 q 91 570 86 564 q 83 559 76 556 q 69 553 63 555 q 49 557 46 569 q 42 581 37 592 q 39 606 34 620 q 30 633 34 647 z"},"5":{"x_min":0,"x_max":384,"ha":384,"o":"m 365 134 l 365 348 q 374 351 377 363 q 390 392 386 419 q 382 446 366 468 q 350 491 326 506 q 302 522 276 528 q 249 534 222 530 q 196 525 176 506 l 176 578 l 346 578 l 346 604 q 353 608 358 655 q 363 702 360 711 q 358 716 352 720 q 347 725 342 726 q 305 728 268 732 q 231 735 194 736 q 156 738 119 736 q 82 734 46 725 q 42 724 29 700 q 16 675 19 636 q 22 597 30 559 q 33 546 43 543 l 43 321 l 175 321 q 173 371 204 371 q 232 371 232 343 l 232 134 q 232 106 204 106 q 179 106 176 128 q 182 132 184 136 q 197 154 199 179 q 201 204 192 226 q 184 247 166 260 q 147 272 119 266 q 102 264 82 260 q 63 256 46 247 q 30 238 21 223 q 12 208 14 183 q 17 158 23 144 q 29 129 43 127 q 45 64 90 20 q 137 -26 204 -26 q 270 -26 318 20 q 365 67 365 134 z m 301 329 q 299 325 295 321 q 295 302 294 284 q 293 266 294 249 q 293 239 286 234 q 279 230 272 230 q 264 231 258 237 q 253 243 254 253 q 258 274 256 296 q 253 317 255 338 q 253 346 244 403 q 244 413 236 420 q 227 426 222 435 q 217 433 211 428 q 205 424 200 420 q 192 409 179 412 q 166 416 158 423 q 154 425 152 431 q 149 437 150 442 q 153 465 166 486 q 178 506 201 514 q 208 517 216 515 q 244 521 274 513 q 303 505 326 486 q 348 467 360 440 q 372 414 365 384 q 363 375 357 370 q 351 364 343 362 q 345 345 345 329 q 345 313 345 296 q 345 285 338 280 q 332 275 324 275 l 305 315 q 305 325 304 336 q 303 333 301 329 z m 48 710 q 63 727 87 724 q 118 720 149 720 q 180 720 210 720 q 241 720 272 716 q 303 713 333 701 q 346 695 351 684 q 356 672 355 658 q 354 645 348 632 q 342 620 332 613 q 325 608 316 609 q 308 610 303 618 q 298 624 298 632 q 297 641 295 649 q 284 638 237 656 q 232 664 224 664 q 217 664 210 660 q 203 655 198 648 q 192 640 191 633 q 184 621 174 618 q 164 615 143 624 q 122 633 115 641 q 105 640 98 634 q 92 627 88 618 q 84 609 82 599 q 80 589 79 581 q 76 566 62 564 q 48 562 41 576 q 27 603 28 634 q 29 665 48 710 z m 38 147 q 24 171 30 190 q 35 209 50 222 q 66 234 88 240 q 110 246 131 242 q 152 239 168 226 q 183 214 185 190 q 186 186 184 180 q 181 175 179 173 q 169 165 160 155 q 150 145 155 131 q 155 121 148 116 q 141 110 133 110 q 132 108 132 107 q 132 106 131 104 q 130 102 130 101 q 130 101 129 99 q 128 95 125 92 q 122 89 120 86 q 119 83 116 82 q 108 74 96 76 q 83 78 81 93 q 79 106 78 118 q 77 130 76 143 q 74 145 74 145 q 69 135 56 134 q 44 133 38 147 z"}}}
